<svg width="24" height="24" viewBox="0 0 24 24" fill="none" xmlns="http://www.w3.org/2000/svg">
<path d="M4.09977 20.9218H19.9002C21.5159 20.9218 22.5231 19.1697 21.7153 17.7743L13.8151 4.12467C13.0072 2.72928 10.9928 2.72928 10.1849 4.12467L2.28471 17.7743C1.47686 19.1697 2.48406 20.9218 4.09977 20.9218ZM12 13.5777C11.423 13.5777 10.9508 13.1055 10.9508 12.5285V10.4302C10.9508 9.85312 11.423 9.381 12 9.381C12.577 9.381 13.0492 9.85312 13.0492 10.4302V12.5285C13.0492 13.1055 12.577 13.5777 12 13.5777ZM13.0492 17.7743H10.9508V15.676H13.0492V17.7743Z" fill="#FF6D6D"/>
</svg>
