<svg width="200" height="200" viewBox="0 0 200 200" fill="none" xmlns="http://www.w3.org/2000/svg">
<rect x="0.5" y="0.5" width="199" height="199" rx="7.5" fill="#FAFAFA"/>
<rect x="0.5" y="0.5" width="199" height="199" rx="7.5" stroke="#E4E4E4"/>
<path d="M71.4286 68.5714C69.8571 68.5714 68.5714 69.8571 68.5714 71.4286V128.571C68.5714 130.143 69.8571 131.429 71.4286 131.429H128.571C130.143 131.429 131.429 130.143 131.429 128.571V71.4286C131.429 69.8571 130.143 68.5714 128.571 68.5714H71.4286ZM60 71.4286C60 65.125 65.125 60 71.4286 60H128.571C134.875 60 140 65.125 140 71.4286V128.571C140 134.875 134.875 140 128.571 140H71.4286C65.125 140 60 134.875 60 128.571V71.4286ZM82.8571 77.1429C86.0179 77.1429 88.5714 79.6964 88.5714 82.8571C88.5714 86.0179 86.0179 88.5714 82.8571 88.5714C79.6964 88.5714 77.1429 86.0179 77.1429 82.8571C77.1429 79.6964 79.6964 77.1429 82.8571 77.1429ZM107.143 90C108.661 90 110.071 90.8036 110.839 92.1071L125.125 116.393C125.911 117.714 125.911 119.357 125.143 120.696C124.375 122.036 122.964 122.857 121.429 122.857H78.5714C76.9821 122.857 75.5 121.964 74.7679 120.554C74.0357 119.143 74.1429 117.429 75.0536 116.125L85.0536 101.839C85.8571 100.696 87.1607 100.018 88.5714 100.018C89.9821 100.018 91.2857 100.696 92.0893 101.839L95.1607 106.232L103.464 92.125C104.232 90.8214 105.643 90.0179 107.161 90.0179L107.143 90Z" fill="#B2B2B2"/>
</svg>
