<svg width="268" height="268" viewBox="0 0 268 268" fill="none" xmlns="http://www.w3.org/2000/svg">
<rect x="1.5" y="1.5" width="265" height="265" rx="10.5" fill="#FAF6E9"/>
<rect x="1.5" y="1.5" width="265" height="265" rx="10.5" stroke="#F5E9D6" stroke-width="3"/>
<path fill-rule="evenodd" clip-rule="evenodd" d="M142.468 97.4615C142.468 97.2065 142.369 96.962 142.193 96.7816C142.016 96.6013 141.777 96.5 141.528 96.5H115.183C112.439 96.5 109.806 97.6144 107.865 99.5979C105.924 101.581 104.834 104.272 104.834 107.077V160.923C104.834 163.728 105.924 166.419 107.865 168.402C109.806 170.386 112.439 171.5 115.183 171.5H152.818C155.563 171.5 158.195 170.386 160.136 168.402C162.077 166.419 163.167 163.728 163.167 160.923V123.027C163.167 122.772 163.068 122.527 162.892 122.347C162.715 122.167 162.476 122.065 162.226 122.065H145.291C144.542 122.065 143.824 121.761 143.295 121.22C142.766 120.68 142.468 119.946 142.468 119.181V97.4615ZM137.764 132.077C137.764 130.547 138.359 129.079 139.418 127.997C140.476 126.916 141.912 126.308 143.409 126.308C144.906 126.308 146.342 126.916 147.401 127.997C148.46 129.079 149.054 130.547 149.054 132.077C149.054 133.607 148.46 135.074 147.401 136.156C146.342 137.238 144.906 137.846 143.409 137.846C141.912 137.846 140.476 137.238 139.418 136.156C138.359 135.074 137.764 133.607 137.764 132.077ZM130.749 138.238C130.495 137.824 130.143 137.481 129.724 137.244C129.305 137.007 128.834 136.883 128.355 136.883C127.877 136.883 127.406 137.007 126.987 137.244C126.568 137.481 126.216 137.824 125.962 138.238L116.553 153.623C116.286 154.06 116.138 154.562 116.124 155.077C116.111 155.592 116.232 156.101 116.477 156.552C116.721 157.002 117.079 157.378 117.513 157.639C117.948 157.901 118.443 158.039 118.947 158.038H149.054C149.579 158.038 150.092 157.889 150.538 157.608C150.984 157.326 151.345 156.923 151.579 156.444C151.813 155.965 151.913 155.428 151.866 154.895C151.819 154.361 151.627 153.852 151.312 153.423L145.667 145.731C145.404 145.373 145.063 145.082 144.672 144.881C144.28 144.681 143.847 144.577 143.409 144.577C142.971 144.577 142.539 144.681 142.147 144.881C141.755 145.082 141.414 145.373 141.151 145.731L137.975 150.058L130.749 138.238Z" fill="#B3B3B3"/>
<path d="M148.111 98.727C148.111 98.0193 148.838 97.5693 149.376 98.0116C149.832 98.3885 150.238 98.827 150.591 99.327L161.931 115.469C162.187 115.839 161.908 116.315 161.464 116.315H149.052C148.803 116.315 148.563 116.214 148.387 116.034C148.21 115.853 148.111 115.609 148.111 115.354V98.727Z" fill="#B3B3B3"/>
</svg>
