<svg width="60" height="60" viewBox="0 0 60 60" fill="none" xmlns="http://www.w3.org/2000/svg">
<path d="M19.6964 5.04857C20.0782 5 20.5009 5 20.9918 5H39.0082C39.4991 5 39.9218 5 40.3036 5.04857C41.659 5.22522 42.9193 5.87052 43.8851 6.88227C44.8509 7.89403 45.4668 9.2144 45.6355 10.6343L45.6436 10.7143H47.8418C48.42 10.7086 49.6882 10.6971 50.7355 11.4314C52.0909 12.3771 52.5 14.0029 52.5 15.7143C52.5 23.5029 48.5373 28.7029 43.4782 31.5914C40.6555 36.9743 35.4409 40.7143 30 40.7143C25.8573 40.7143 21.9273 38.3657 19.0991 35.1171C18.1594 34.0431 17.3345 32.8647 16.6391 31.6029C11.5827 28.7286 7.5 23.5343 7.5 15.7143C7.5 14 7.90909 12.3771 9.26182 11.4314C10.3118 10.6971 11.58 10.7086 12.1582 10.7143H14.3564L14.3645 10.6343C14.5332 9.2144 15.1491 7.89403 16.1149 6.88227C17.0807 5.87052 18.341 5.22522 19.6964 5.04857ZM48.36 15.0143C48.1493 15.001 47.9383 14.9962 47.7273 15H45.6736L45.5864 24.4C47.3264 22.2057 48.4091 19.3429 48.4091 15.7143C48.4091 15.3771 48.3845 15.1543 48.36 15.0143ZM11.5909 15.7143C11.5909 19.2486 12.6491 22.0571 14.3455 24.2343C14.1655 22.1029 14.2145 19.9371 14.2636 17.7829C14.2891 16.8495 14.3045 15.9219 14.31 15H12.2727C11.9755 15 11.7873 15 11.6427 15.0143C11.6044 15.2454 11.587 15.4798 11.5909 15.7143ZM30.6273 14.4429C30.5749 14.314 30.4875 14.2041 30.376 14.1269C30.2644 14.0497 30.1337 14.0085 30 14.0085C29.8663 14.0085 29.7356 14.0497 29.624 14.1269C29.5125 14.2041 29.4251 14.314 29.3727 14.4429L27.9955 17.9057C27.9474 18.0266 27.8686 18.1313 27.7676 18.2084C27.6666 18.2854 27.5473 18.332 27.4227 18.3429L23.8527 18.6429C23.7184 18.654 23.5903 18.7066 23.4845 18.7939C23.3787 18.8813 23.3 18.9995 23.2583 19.1337C23.2165 19.2679 23.2137 19.412 23.2501 19.5479C23.2865 19.6837 23.3605 19.8053 23.4627 19.8971L26.1818 22.3371C26.2769 22.4228 26.3475 22.5343 26.386 22.6593C26.4245 22.7843 26.4293 22.918 26.4 23.0457L25.5709 26.6914C25.5389 26.829 25.5467 26.9734 25.5933 27.1064C25.6398 27.2393 25.723 27.3547 25.8324 27.438C25.9417 27.5213 26.0721 27.5687 26.2072 27.5741C26.3423 27.5796 26.4758 27.5428 26.5909 27.4686L29.6455 25.5143C29.7523 25.4462 29.8749 25.4101 30 25.4101C30.1251 25.4101 30.2477 25.4462 30.3545 25.5143L33.4091 27.4686C33.5242 27.5428 33.6577 27.5796 33.7928 27.5741C33.9279 27.5687 34.0583 27.5213 34.1676 27.438C34.277 27.3547 34.3602 27.2393 34.4067 27.1064C34.4533 26.9734 34.4611 26.829 34.4291 26.6914L33.5973 23.0457C33.5679 22.918 33.5728 22.7843 33.6113 22.6593C33.6498 22.5343 33.7204 22.4228 33.8155 22.3371L36.5373 19.8971C36.6405 19.8055 36.7153 19.6838 36.7523 19.5474C36.7892 19.4111 36.7866 19.2663 36.7448 19.1315C36.703 18.9967 36.6238 18.878 36.5174 18.7905C36.411 18.703 36.2822 18.6506 36.1473 18.64L32.58 18.3429C32.455 18.3325 32.3351 18.2862 32.2336 18.2091C32.1321 18.1319 32.0528 18.027 32.0045 17.9057L30.6273 14.4429ZM30 42.1429C30.5425 42.1429 31.0628 42.3686 31.4464 42.7705C31.83 43.1723 32.0455 43.7174 32.0455 44.2857V50.7143H40.9091C41.4516 50.7143 41.9719 50.94 42.3554 51.3419C42.739 51.7438 42.9545 52.2888 42.9545 52.8571C42.9545 53.4255 42.739 53.9705 42.3554 54.3724C41.9719 54.7742 41.4516 55 40.9091 55H19.0909C18.5484 55 18.0282 54.7742 17.6446 54.3724C17.261 53.9705 17.0455 53.4255 17.0455 52.8571C17.0455 52.2888 17.261 51.7438 17.6446 51.3419C18.0282 50.94 18.5484 50.7143 19.0909 50.7143H27.9545V44.2857C27.9545 43.7174 28.17 43.1723 28.5536 42.7705C28.9372 42.3686 29.4575 42.1429 30 42.1429Z" fill="#262627"/>
</svg>
