<svg width="60" height="60" viewBox="0 0 60 60" fill="none" xmlns="http://www.w3.org/2000/svg">
<rect x="0.5" y="0.5" width="59" height="59" rx="29.5" fill="#F6F6F6"/>
<rect x="0.5" y="0.5" width="59" height="59" rx="29.5" stroke="#B3E378"/>
<path d="M25.9102 30.4433C25.9102 29.3591 26.3408 28.3194 27.1074 27.5528C27.8741 26.7861 28.9138 26.3555 29.998 26.3555C31.0821 26.3555 32.1219 26.7861 32.8885 27.5528C33.6551 28.3194 34.0858 29.3591 34.0858 30.4433C34.0858 31.5274 33.6551 32.5672 32.8885 33.3338C32.1219 34.1004 31.0821 34.5311 29.998 34.5311C28.9138 34.5311 27.8741 34.1004 27.1074 33.3338C26.3408 32.5672 25.9102 31.5274 25.9102 30.4433Z" fill="#262627"/>
<path fill-rule="evenodd" clip-rule="evenodd" d="M21.7762 20.7084C21.7758 19.9586 21.9231 19.2161 22.2098 18.5233C22.4965 17.8305 22.917 17.2011 23.4471 16.6709C23.9773 16.1407 24.6068 15.7203 25.2996 15.4336C25.9924 15.1468 26.7349 14.9995 27.4847 15H32.5136C33.2633 14.9995 34.0059 15.1468 34.6986 15.4336C35.3914 15.7203 36.0209 16.1407 36.5511 16.6709C37.0813 17.2011 37.5017 17.8305 37.7884 18.5233C38.0751 19.2161 38.2225 19.9586 38.222 20.7084C38.2223 20.7214 38.2272 20.7338 38.2359 20.7435C38.2445 20.7531 38.2564 20.7594 38.2692 20.7611L42.3207 21.0881C44.1357 21.2371 45.6273 22.5779 45.967 24.3675C46.8297 28.9323 46.8936 33.6121 46.156 38.1988L45.9797 39.2962C45.8181 40.3016 45.3238 41.2237 44.5762 41.915C43.8285 42.6064 42.8706 43.027 41.8556 43.1096L38.3255 43.3949C32.7837 43.8451 27.2145 43.8451 21.6727 43.3949L18.1426 43.1096C17.1274 43.0269 16.1693 42.606 15.4216 41.9143C14.6738 41.2226 14.1798 40.3001 14.0185 39.2943L13.8423 38.1988C13.1028 33.6114 13.1682 28.9331 14.0312 24.3675C14.1962 23.4972 14.6423 22.7053 15.3011 22.1131C15.9598 21.521 16.7947 21.1616 17.6775 21.0899L21.729 20.7611C21.7419 20.7594 21.7537 20.7531 21.7623 20.7435C21.771 20.7338 21.7759 20.7214 21.7762 20.7084ZM29.9991 23.6298C28.1922 23.6298 26.4593 24.3476 25.1816 25.6253C23.9039 26.903 23.1861 28.6359 23.1861 30.4429C23.1861 32.2498 23.9039 33.9827 25.1816 35.2604C26.4593 36.5381 28.1922 37.2559 29.9991 37.2559C31.806 37.2559 33.539 36.5381 34.8166 35.2604C36.0943 33.9827 36.8121 32.2498 36.8121 30.4429C36.8121 28.6359 36.0943 26.903 34.8166 25.6253C33.539 24.3476 31.806 23.6298 29.9991 23.6298Z" fill="#262627"/>
</svg>
