<svg width="92" height="40" viewBox="0 0 92 40" fill="none" xmlns="http://www.w3.org/2000/svg">
<rect x="0.5" y="0.5" width="91" height="39" rx="3.5" fill="#F6F6F6"/>
<rect x="0.5" y="0.5" width="91" height="39" rx="3.5" stroke="#E4E4E4"/>
<path d="M30.7051 20.3711H29.1738V13.3711H30.7051V20.3711ZM30.7051 25.5664H22.502V20.9727H30.7051V25.5664ZM24.0059 24.3359H29.2148V22.1758H24.0059V24.3359ZM23.9648 13.959C24.5938 13.959 25.1611 14.0843 25.667 14.335C26.1729 14.5811 26.5693 14.9297 26.8564 15.3809C27.1436 15.8275 27.2871 16.3379 27.2871 16.9121C27.2871 17.4681 27.1413 17.9694 26.8496 18.416C26.5625 18.8581 26.166 19.2067 25.6602 19.4619C25.1543 19.7126 24.5892 19.8379 23.9648 19.8379C23.3359 19.8379 22.7663 19.7126 22.2559 19.4619C21.75 19.2113 21.3512 18.8626 21.0596 18.416C20.7725 17.9694 20.6289 17.4681 20.6289 16.9121C20.6289 16.3379 20.7725 15.8275 21.0596 15.3809C21.3512 14.9297 21.75 14.5811 22.2559 14.335C22.7617 14.0843 23.3314 13.959 23.9648 13.959ZM23.9648 15.2441C23.6048 15.2441 23.2835 15.3125 23.001 15.4492C22.723 15.5859 22.5042 15.7796 22.3447 16.0303C22.1898 16.2809 22.1146 16.5749 22.1191 16.9121C22.1146 17.2402 22.1898 17.5296 22.3447 17.7803C22.5042 18.0264 22.723 18.2178 23.001 18.3545C23.2835 18.4867 23.6048 18.5527 23.9648 18.5527C24.3203 18.5527 24.6348 18.4867 24.9082 18.3545C25.1862 18.2178 25.4027 18.0264 25.5576 17.7803C25.7171 17.5296 25.7969 17.2402 25.7969 16.9121C25.7969 16.5749 25.7194 16.2809 25.5645 16.0303C25.4095 15.7796 25.193 15.5859 24.915 15.4492C24.637 15.3125 24.3203 15.2441 23.9648 15.2441ZM37.1855 16.3242C37.181 17.0853 37.3063 17.8258 37.5615 18.5459C37.8167 19.266 38.1859 19.9062 38.6689 20.4668C39.152 21.0273 39.7194 21.4466 40.3711 21.7246L39.4688 22.9414C38.7715 22.6178 38.1631 22.1462 37.6436 21.5264C37.1286 20.9066 36.7253 20.1842 36.4336 19.3594C36.1419 20.2526 35.7295 21.0365 35.1963 21.7109C34.6676 22.3809 34.0365 22.8867 33.3027 23.2285L32.373 21.957C33.043 21.6699 33.624 21.237 34.1162 20.6582C34.613 20.0749 34.9912 19.4072 35.251 18.6553C35.5107 17.8988 35.6406 17.1217 35.6406 16.3242V14.3555H37.1855V16.3242ZM42.791 25.7305H41.2598V13.3574H42.791V25.7305ZM58.2949 25.7305H56.7773V18.9766H54.3984V17.7324H56.7773V13.3574H58.2949V25.7305ZM52.4707 16.6387C52.4707 17.3587 52.596 18.0697 52.8467 18.7715C53.0973 19.4733 53.4596 20.1022 53.9336 20.6582C54.4076 21.2096 54.9681 21.6243 55.6152 21.9023L54.7129 23.1191C54.0111 22.7865 53.4049 22.2988 52.8945 21.6562C52.3841 21.0137 51.9899 20.2708 51.7119 19.4277C51.4294 20.321 51.0283 21.1117 50.5088 21.7998C49.9938 22.488 49.3854 23.0098 48.6836 23.3652L47.7676 22.1758C48.4102 21.875 48.9684 21.4352 49.4424 20.8564C49.9209 20.2731 50.2855 19.6146 50.5361 18.8809C50.7913 18.1471 50.9212 17.3997 50.9258 16.6387V15.8184H48.2734V14.5742H55.123V15.8184H52.4707V16.6387ZM64.4609 15.5859C64.4609 16.1009 64.5703 16.5908 64.7891 17.0557C65.0124 17.5205 65.3428 17.9329 65.7803 18.293C66.2178 18.6484 66.7487 18.9219 67.373 19.1133L66.6484 20.3027C65.9694 20.0931 65.3815 19.7786 64.8848 19.3594C64.3926 18.9401 64.0075 18.4456 63.7295 17.876C63.4515 18.5368 63.0527 19.111 62.5332 19.5986C62.0137 20.0863 61.3893 20.4531 60.6602 20.6992L59.8945 19.4961C60.5417 19.2819 61.0931 18.9766 61.5488 18.5801C62.0046 18.179 62.3486 17.721 62.5811 17.2061C62.8135 16.6911 62.9297 16.1556 62.9297 15.5996V15.4492H60.3184V14.2188H67.0312V15.4492H64.4609V15.5859ZM69.7793 16.3242H71.502V17.5684H69.7793V20.7266H68.2617V13.3574H69.7793V16.3242ZM65.7598 21C66.6074 21 67.3411 21.0934 67.9609 21.2803C68.5853 21.4626 69.0638 21.7292 69.3965 22.0801C69.7292 22.431 69.8978 22.8503 69.9023 23.3379C69.8978 23.8301 69.7269 24.2539 69.3896 24.6094C69.057 24.9648 68.5807 25.236 67.9609 25.4229C67.3411 25.6097 66.6074 25.7031 65.7598 25.7031C64.903 25.7031 64.1602 25.6097 63.5312 25.4229C62.9023 25.236 62.4193 24.9648 62.082 24.6094C61.7448 24.2539 61.5762 23.8301 61.5762 23.3379C61.5762 22.8503 61.7448 22.431 62.082 22.0801C62.4193 21.7292 62.9023 21.4626 63.5312 21.2803C64.1602 21.0934 64.903 21 65.7598 21ZM65.7598 22.1895C64.9076 22.1895 64.249 22.2874 63.7842 22.4834C63.3239 22.6794 63.0938 22.9642 63.0938 23.3379C63.0938 23.7207 63.3239 24.0124 63.7842 24.2129C64.249 24.4134 64.9076 24.5137 65.7598 24.5137C66.612 24.5137 67.2637 24.4134 67.7148 24.2129C68.1706 24.0124 68.3984 23.7207 68.3984 23.3379C68.3984 22.9642 68.1706 22.6794 67.7148 22.4834C67.2637 22.2874 66.612 22.1895 65.7598 22.1895Z" fill="#464646"/>
</svg>
