<svg width="24" height="24" viewBox="0 0 24 24" fill="none" xmlns="http://www.w3.org/2000/svg">
<path d="M12 3H5C4.46957 3 3.96086 3.21071 3.58579 3.58579C3.21071 3.96086 3 4.46957 3 5V19C3 19.5304 3.21071 20.0391 3.58579 20.4142C3.96086 20.7893 4.46957 21 5 21H19C19.5304 21 20.0391 20.7893 20.4142 20.4142C20.7893 20.0391 21 19.5304 21 19V12" stroke="#464646" stroke-width="1.5" stroke-linecap="round" stroke-linejoin="round"/>
<path d="M19.875 2.75391C20.2386 2.75391 20.5876 2.8982 20.8447 3.15527C21.1018 3.41239 21.246 3.76139 21.2461 4.125C21.2461 4.48866 21.1019 4.83756 20.8447 5.09473L11.832 14.1084C11.6836 14.2567 11.5002 14.365 11.2988 14.4238V14.4248L8.86426 15.1357L9.57617 12.7021C9.63526 12.5012 9.74337 12.3179 9.8916 12.1699H9.89258L18.9053 3.15527C19.1624 2.89816 19.5114 2.75393 19.875 2.75391Z" stroke="#464646" stroke-width="1.5" stroke-linecap="round" stroke-linejoin="round"/>
</svg>
