<svg width="18" height="18" viewBox="0 0 18 18" fill="none" xmlns="http://www.w3.org/2000/svg">
<path fill-rule="evenodd" clip-rule="evenodd" d="M3.696 3.696C3.91567 3.47633 4.27126 3.47633 4.49092 3.696L8.99971 8.20381L13.5075 3.69698C13.7272 3.47731 14.0838 3.47731 14.3034 3.69698C14.5228 3.9166 14.5228 4.2723 14.3034 4.4919L9.79464 8.99971L14.3024 13.5065C14.5221 13.7262 14.5221 14.0828 14.3024 14.3024C14.0828 14.5221 13.7262 14.5221 13.5065 14.3024L8.99971 9.79463L4.49288 14.3024C4.27321 14.5221 3.91665 14.5221 3.69698 14.3024C3.47768 14.0829 3.4778 13.7271 3.69698 13.5075L8.20381 8.99971L3.696 4.49092C3.47633 4.27125 3.47633 3.91567 3.696 3.696Z" fill="#FF6D6D"/>
</svg>
