<svg width="80" height="80" viewBox="0 0 80 80" fill="none" xmlns="http://www.w3.org/2000/svg">
<rect x="30" y="6.66602" width="30" height="26.6667" fill="#B3E378"/>
<path d="M19.9993 73.3327C18.2312 73.3327 16.5355 72.6303 15.2853 71.3801C14.0351 70.1298 13.3327 68.4341 13.3327 66.666V13.3327C13.3327 11.5646 14.0351 9.86888 15.2853 8.61864C16.5355 7.36839 18.2312 6.66602 19.9993 6.66602H39.9993V29.9994L48.3327 24.9993L56.666 29.9994V6.66602H59.9993C61.7675 6.66602 63.4632 7.36839 64.7134 8.61864C65.9636 9.86888 66.666 11.5646 66.666 13.3327V66.666C66.666 68.4341 65.9636 70.1298 64.7134 71.3801C63.4632 72.6303 61.7675 73.3327 59.9993 73.3327H19.9993Z" fill="#262627"/>
</svg>
