<svg width="200" height="200" viewBox="0 0 200 200" fill="none" xmlns="http://www.w3.org/2000/svg">
<rect x="0.5" y="0.5" width="199" height="199" rx="7.5" fill="#FAFAFA"/>
<rect x="0.5" y="0.5" width="199" height="199" rx="7.5" stroke="#E4E4E4"/>
<path d="M100.005 75C101.04 75 101.88 75.8395 101.88 76.875V98.124H123.126C124.162 98.124 125.001 98.9635 125.001 99.999C125.001 101.034 124.161 101.874 123.126 101.874H101.88V123.122C101.88 124.158 101.04 124.997 100.005 124.997C98.9694 124.997 98.1299 124.158 98.1299 123.122V101.874H76.875C75.8395 101.874 75.0001 101.034 75 99.999C75 98.9635 75.8395 98.124 76.875 98.124H98.1299V76.875C98.1299 75.8395 98.9694 75 100.005 75Z" fill="#B3E378"/>
</svg>
