<svg width="24" height="24" viewBox="0 0 24 24" fill="none" xmlns="http://www.w3.org/2000/svg">
<path d="M22.4583 11.7571C21.6587 9.62202 20.2644 7.77223 18.4472 6.43571L21.8003 3.00714L20.8132 2L2.19972 20.9929L3.18675 22L6.75685 18.3643C8.35064 19.3114 10.1559 19.8254 12 19.8571C14.2817 19.7696 16.4883 19.0017 18.3469 17.6485C20.2056 16.2953 21.635 14.416 22.4583 12.2429C22.5139 12.0859 22.5139 11.9141 22.4583 11.7571ZM12 16.6429C11.0351 16.6424 10.0956 16.327 9.31892 15.7429L10.6 14.45C11.1311 14.747 11.7424 14.8602 12.3419 14.7727C12.9415 14.6852 13.4971 14.4016 13.9254 13.9646C14.3537 13.5276 14.6315 12.9607 14.7173 12.3489C14.8031 11.7371 14.6921 11.1134 14.4011 10.5714L15.6681 9.27857C16.1613 9.96971 16.4575 10.7865 16.5241 11.6388C16.5907 12.491 16.425 13.3454 16.0454 14.1075C15.6658 14.8696 15.087 15.5098 14.3731 15.9573C13.6591 16.4047 12.8378 16.642 12 16.6429ZM3.97077 16.15L7.47087 12.5786C7.45293 12.3863 7.44591 12.1931 7.44987 12C7.45172 10.7692 7.9317 9.58939 8.78462 8.71909C9.63753 7.8488 10.7938 7.35903 12 7.35714C12.1849 7.35839 12.3695 7.37032 12.553 7.39286L15.1991 4.7C14.1692 4.3392 13.0889 4.15105 12 4.14286C9.7183 4.23041 7.51174 4.99825 5.65306 6.35149C3.79438 7.70473 2.36504 9.58403 1.5417 11.7571C1.4861 11.9141 1.4861 12.0859 1.5417 12.2429C2.08006 13.7015 2.9069 15.0315 3.97077 16.15Z" fill="#6F6F6F"/>
</svg>
