<svg width="405" height="70" viewBox="0 0 405 70" fill="none" xmlns="http://www.w3.org/2000/svg">
<rect width="405" height="70" rx="10" fill="#FFEB3B"/>
<path d="M106.497 20C115.703 20 123.165 25.6957 123.165 32.7235C123.165 39.7498 115.703 45.4455 106.499 45.4455C105.582 45.4439 104.667 45.3868 103.757 45.2745L96.7606 49.7561C95.9654 50.168 95.6844 50.123 96.0114 49.1141L97.4273 43.3967C92.8558 41.1271 89.832 37.1942 89.832 32.7235C89.832 25.6972 97.2923 20 106.499 20M115.876 32.5292L118.21 30.3156C118.344 30.1787 118.42 29.9959 118.419 29.8058C118.419 29.6157 118.344 29.4331 118.209 29.2965C118.074 29.1599 117.89 29.0799 117.696 29.0734C117.502 29.0669 117.313 29.1344 117.169 29.2617L114.108 32.1623V29.7653C114.108 29.5707 114.029 29.3841 113.889 29.2465C113.748 29.1089 113.558 29.0316 113.359 29.0316C113.16 29.0316 112.97 29.1089 112.829 29.2465C112.689 29.3841 112.61 29.5707 112.61 29.7653V33.7402C112.583 33.8537 112.583 33.9717 112.61 34.0853V36.3222C112.61 36.5168 112.689 36.7034 112.829 36.841C112.97 36.9786 113.16 37.0559 113.359 37.0559C113.558 37.0559 113.748 36.9786 113.889 36.841C114.029 36.7034 114.108 36.5168 114.108 36.3222V34.2034L114.786 33.5614L117.053 36.7217C117.109 36.8006 117.181 36.8678 117.264 36.9195C117.347 36.9712 117.44 37.0063 117.537 37.0229C117.634 37.0395 117.733 37.0372 117.83 37.0162C117.926 36.9952 118.017 36.9559 118.097 36.9004C118.178 36.845 118.246 36.7746 118.299 36.6932C118.352 36.6118 118.388 36.521 118.405 36.426C118.422 36.3311 118.419 36.2337 118.398 36.1396C118.376 36.0455 118.336 35.9565 118.28 35.8776L115.876 32.5292ZM111.181 35.5201H108.864V29.7886C108.855 29.6001 108.772 29.4221 108.633 29.2918C108.493 29.1614 108.308 29.0887 108.115 29.0887C107.923 29.0887 107.737 29.1614 107.598 29.2918C107.459 29.4221 107.376 29.6001 107.367 29.7886V36.2538C107.367 36.6579 107.7 36.9875 108.115 36.9875H111.181C111.38 36.9875 111.571 36.9102 111.711 36.7726C111.852 36.635 111.93 36.4484 111.93 36.2538C111.93 36.0592 111.852 35.8726 111.711 35.735C111.571 35.5974 111.38 35.5201 111.181 35.5201ZM101.884 33.8241L102.989 31.169L104.002 33.8225L101.884 33.8241ZM105.889 34.5811L105.892 34.5563C105.892 34.3715 105.82 34.1937 105.691 34.0588L104.03 29.7063C103.961 29.4988 103.828 29.3172 103.65 29.1855C103.473 29.0538 103.258 28.9784 103.035 28.9694C102.811 28.9693 102.592 29.0356 102.407 29.1596C102.222 29.2837 102.08 29.4596 101.999 29.6643L99.3606 35.9988C99.2855 36.179 99.2865 36.381 99.3634 36.5605C99.4404 36.7399 99.587 36.882 99.7709 36.9556C99.9549 37.0292 100.161 37.0282 100.344 36.9529C100.528 36.8775 100.673 36.734 100.748 36.5538L101.275 35.29H104.561L105.034 36.5336C105.066 36.6265 105.117 36.7122 105.184 36.7855C105.25 36.8588 105.331 36.9183 105.422 36.9603C105.512 37.0024 105.611 37.0263 105.711 37.0305C105.811 37.0347 105.911 37.0191 106.005 36.9848C106.099 36.9505 106.185 36.898 106.258 36.8306C106.331 36.7631 106.389 36.682 106.429 36.5921C106.469 36.5022 106.491 36.4053 106.492 36.3071C106.493 36.209 106.475 36.1115 106.437 36.0206L105.889 34.5811ZM100.615 29.7964C100.615 29.7001 100.596 29.6046 100.559 29.5155C100.521 29.4264 100.466 29.3454 100.397 29.2772C100.327 29.209 100.245 29.155 100.154 29.1182C100.063 29.0813 99.9653 29.0625 99.867 29.0627H94.7162C94.5175 29.0627 94.3269 29.14 94.1864 29.2776C94.0459 29.4152 93.967 29.6018 93.967 29.7964C93.967 29.991 94.0459 30.1776 94.1864 30.3152C94.3269 30.4528 94.5175 30.5301 94.7162 30.5301H96.5574V36.3377C96.5574 36.5323 96.6364 36.7189 96.7769 36.8565C96.9174 36.9941 97.1079 37.0714 97.3066 37.0714C97.5053 37.0714 97.6959 36.9941 97.8364 36.8565C97.9769 36.7189 98.0558 36.5323 98.0558 36.3377V30.5301H99.8654C99.9639 30.5305 100.061 30.5118 100.153 30.4751C100.244 30.4384 100.326 30.3844 100.396 30.3161C100.466 30.2479 100.521 30.1669 100.558 30.0777C100.596 29.9885 100.615 29.8929 100.615 29.7964Z" fill="#262626"/>
<path d="M156.219 26.4844C156.219 28.8125 155.949 30.9102 155.41 32.7773C154.871 34.6367 153.898 36.3711 152.492 37.9805C151.094 39.5898 149.148 41.0156 146.656 42.2578L145.227 40.2891C147.023 39.3984 148.492 38.4258 149.633 37.3711C150.781 36.3086 151.672 35.1367 152.305 33.8555L145.719 34.4766L145.391 32.2266L153.09 31.7461C153.355 30.8008 153.531 29.75 153.617 28.5938H146.492V26.4844H156.219ZM161.797 32.6953H164.938V34.8281H161.797V45.5391H159.195V24.3984H161.797V32.6953ZM176.961 26.4844C176.961 28.8125 176.691 30.9102 176.152 32.7773C175.613 34.6367 174.641 36.3711 173.234 37.9805C171.836 39.5898 169.891 41.0156 167.398 42.2578L165.969 40.2891C167.766 39.3984 169.234 38.4258 170.375 37.3711C171.523 36.3086 172.414 35.1367 173.047 33.8555L166.461 34.4766L166.133 32.2266L173.832 31.7461C174.098 30.8008 174.273 29.75 174.359 28.5938H167.234V26.4844H176.961ZM182.539 32.6953H185.68V34.8281H182.539V45.5391H179.938V24.3984H182.539V32.6953ZM196.32 25.5938C197.828 25.5938 199.18 25.832 200.375 26.3086C201.578 26.7852 202.52 27.457 203.199 28.3242C203.879 29.1914 204.219 30.1875 204.219 31.3125C204.219 32.3516 203.938 33.2773 203.375 34.0898C202.82 34.9023 202.043 35.5586 201.043 36.0586C200.051 36.5508 198.906 36.8633 197.609 36.9961V40.875H206.047V43.0078H186.688V40.875H195.031V36.9961C193.742 36.8633 192.602 36.5508 191.609 36.0586C190.617 35.5586 189.844 34.9023 189.289 34.0898C188.734 33.2773 188.461 32.3516 188.469 31.3125C188.461 30.1875 188.793 29.1914 189.465 28.3242C190.145 27.457 191.082 26.7852 192.277 26.3086C193.473 25.832 194.82 25.5938 196.32 25.5938ZM196.32 27.7031C195.289 27.6953 194.371 27.8398 193.566 28.1367C192.762 28.4258 192.133 28.8477 191.68 29.4023C191.234 29.9492 191.016 30.5859 191.023 31.3125C191.016 32.0625 191.234 32.7148 191.68 33.2695C192.133 33.8164 192.762 34.2383 193.566 34.5352C194.371 34.8242 195.289 34.9688 196.32 34.9688C197.367 34.9688 198.293 34.8242 199.098 34.5352C199.91 34.2383 200.539 33.8164 200.984 33.2695C201.438 32.7148 201.664 32.0625 201.664 31.3125C201.664 30.5781 201.438 29.9375 200.984 29.3906C200.531 28.8438 199.898 28.4258 199.086 28.1367C198.281 27.8398 197.359 27.6953 196.32 27.7031ZM226.789 43.125H207.43V40.9688H215.773V37.5234H209.727V30.5859H221.914V27.9609H209.68V25.8516H224.492V32.6484H212.328V35.3906H224.984V37.5234H218.352V40.9688H226.789V43.125ZM241.883 29.4844C241.875 30.7891 242.09 32.0586 242.527 33.293C242.965 34.5273 243.598 35.625 244.426 36.5859C245.254 37.5469 246.227 38.2656 247.344 38.7422L245.797 40.8281C244.602 40.2734 243.559 39.4648 242.668 38.4023C241.785 37.3398 241.094 36.1016 240.594 34.6875C240.094 36.2188 239.387 37.5625 238.473 38.7188C237.566 39.8672 236.484 40.7344 235.227 41.3203L233.633 39.1406C234.781 38.6484 235.777 37.9062 236.621 36.9141C237.473 35.9141 238.121 34.7695 238.566 33.4805C239.012 32.1836 239.234 30.8516 239.234 29.4844V26.1094H241.883V29.4844ZM251.492 45.6094H248.867V24.3984H251.492V45.6094ZM262.203 28.0781C262.203 28.9609 262.391 29.8164 262.766 30.6445C263.148 31.4648 263.715 32.1992 264.465 32.8477C265.223 33.4961 266.141 34 267.219 34.3594L265.906 36.375C264.75 35.9922 263.75 35.4258 262.906 34.6758C262.062 33.918 261.402 33.0312 260.926 32.0156C260.449 33.125 259.77 34.0898 258.887 34.9102C258.012 35.7227 256.969 36.3359 255.758 36.75L254.375 34.7344C255.484 34.3672 256.43 33.8438 257.211 33.1641C257.992 32.4766 258.582 31.6953 258.98 30.8203C259.379 29.9375 259.578 29.0234 259.578 28.0781V27.8203H255.102V25.7344H266.609V27.8203H262.203V28.0781ZM271.32 29.6953H274.273V31.875H271.32V37.1719H268.719V24.3984H271.32V29.6953ZM271.32 45.5859H268.719V40.2422H257.211V38.1562H271.32V45.5859ZM291.945 32.8359H295.203V34.9922H291.945V45.5859H289.367V24.3984H291.945V32.8359ZM287.727 29.7422H275.234V27.6562H280.25V24.7031H282.852V27.6562H287.727V29.7422ZM281.562 31.125C282.57 31.125 283.477 31.3398 284.281 31.7695C285.094 32.1914 285.73 32.7812 286.191 33.5391C286.652 34.2969 286.883 35.1562 286.883 36.1172C286.883 37.0781 286.652 37.9375 286.191 38.6953C285.73 39.4453 285.094 40.0312 284.281 40.4531C283.477 40.875 282.57 41.0859 281.562 41.0859C280.539 41.0859 279.621 40.875 278.809 40.4531C277.996 40.0312 277.359 39.4453 276.898 38.6953C276.438 37.9375 276.211 37.0781 276.219 36.1172C276.211 35.1562 276.438 34.2969 276.898 33.5391C277.359 32.7812 277.996 32.1914 278.809 31.7695C279.621 31.3398 280.539 31.125 281.562 31.125ZM281.562 33.2578C281.008 33.2578 280.512 33.375 280.074 33.6094C279.645 33.8438 279.309 34.1797 279.066 34.6172C278.824 35.0469 278.703 35.5469 278.703 36.1172C278.703 36.6875 278.824 37.1875 279.066 37.6172C279.309 38.0391 279.645 38.3672 280.074 38.6016C280.512 38.8281 281.008 38.9375 281.562 38.9297C282.102 38.9375 282.582 38.8281 283.004 38.6016C283.434 38.3672 283.77 38.0391 284.012 37.6172C284.262 37.1875 284.391 36.6875 284.398 36.1172C284.391 35.5469 284.262 35.0469 284.012 34.6172C283.77 34.1875 283.434 33.8555 283.004 33.6211C282.582 33.3789 282.102 33.2578 281.562 33.2578ZM313.789 45.5859H311.164V24.3984H313.789V45.5859ZM307.461 26.6484C307.461 30.0156 306.699 32.9727 305.176 35.5195C303.652 38.0586 301.125 40.1641 297.594 41.8359L296.234 39.75C298.961 38.4531 301.012 36.9023 302.387 35.0977C303.77 33.2852 304.578 31.1562 304.812 28.7109H297.312V26.6484H307.461Z" fill="#262626"/>
</svg>
