<svg width="286" height="70" viewBox="0 0 286 70" fill="none" xmlns="http://www.w3.org/2000/svg">
<g clip-path="url(#clip0_4406_10591)">
<rect width="286" height="70" rx="12" fill="#FEE500"/>
<g clip-path="url(#clip1_4406_10591)">
<path fill-rule="evenodd" clip-rule="evenodd" d="M53 18.1992C43.0583 18.1992 35 24.4251 35 32.1038C35 36.8793 38.1168 41.0892 42.863 43.5931L40.8661 50.8882C40.6896 51.5328 41.4268 52.0466 41.9929 51.6731L50.7467 45.8956C51.4854 45.9669 52.2362 46.0085 53 46.0085C62.9409 46.0085 70.9999 39.7828 70.9999 32.1038C70.9999 24.4251 62.9409 18.1992 53 18.1992Z" fill="black"/>
</g>
<path d="M101.43 22.93C101.4 32.08 97.23 38.2 89.58 42.22L87.6 40C91.47 38.23 94.71 35.38 96.54 31.69L88.71 32.53L88.23 29.86L97.56 29.17C97.89 27.97 98.13 26.74 98.22 25.42H89.58V22.93H101.43ZM108.66 20.14V30.58H112.8V33.13H108.66V46.87H105.57V20.14H108.66ZM127.387 22.93C127.357 32.08 123.187 38.2 115.537 42.22L113.557 40C117.427 38.23 120.667 35.38 122.497 31.69L114.667 32.53L114.187 29.86L123.517 29.17C123.847 27.97 124.087 26.74 124.177 25.42H115.537V22.93H127.387ZM134.617 20.14V30.58H138.757V33.13H134.617V46.87H131.527V20.14H134.617ZM163.964 43.45H139.814V40.99H150.314V36.43C145.364 35.95 142.214 33.13 142.214 29.14C142.214 24.73 146.084 21.79 151.874 21.79C157.754 21.79 161.594 24.73 161.594 29.14C161.594 33.16 158.384 35.98 153.374 36.46V40.99H163.964V43.45ZM158.504 29.17C158.504 26.32 155.894 24.31 151.874 24.31C147.944 24.31 145.304 26.32 145.304 29.17C145.304 31.99 147.944 33.91 151.874 33.91C155.864 33.91 158.504 31.99 158.504 29.17ZM195.462 36.55H187.212V41.02H197.802V43.48H173.652V41.02H184.152V36.55H176.742V27.91H191.622V24.46H176.652V22H194.682V30.4H179.832V34.06H195.462V36.55ZM223.759 42.97H199.609V40.48H223.759V42.97ZM220.609 23.02C220.609 30.1 220.159 35.11 219.439 38.62L216.409 38.23C217.069 35.56 217.519 29.77 217.519 25.45H202.399V23.02H220.609ZM247.556 39.52H244.496V20.14H247.556V39.52ZM248.186 46.09H229.886V37.69H232.946V43.63H248.186V46.09ZM240.056 28.66C240.056 32.47 237.296 35.2 233.216 35.2C229.136 35.2 226.316 32.47 226.316 28.69C226.316 24.88 229.106 22.12 233.216 22.12C237.296 22.12 240.056 24.85 240.056 28.66ZM236.996 28.66C236.996 26.32 235.556 24.67 233.216 24.67C230.936 24.67 229.406 26.38 229.406 28.66C229.406 30.85 230.936 32.59 233.216 32.59C235.556 32.59 236.996 30.85 236.996 28.66Z" fill="black" fill-opacity="0.85"/>
</g>
<defs>
<clipPath id="clip0_4406_10591">
<rect width="286" height="70" rx="12" fill="white"/>
</clipPath>
<clipPath id="clip1_4406_10591">
<rect width="35.9999" height="36" fill="white" transform="translate(35 17)"/>
</clipPath>
</defs>
</svg>
