<svg width="96" height="44" viewBox="0 0 96 44" fill="none" xmlns="http://www.w3.org/2000/svg">
<g filter="url(#filter0_d_4131_47932)">
<rect x="2" width="91.0219" height="39.7531" rx="8" fill="white" shape-rendering="crispEdges"/>
<rect x="2.5" y="0.5" width="90.0219" height="38.7531" rx="7.5" stroke="#B3E378" shape-rendering="crispEdges"/>
<path d="M28.748 15.418C28.748 16.2557 28.737 16.9777 28.715 17.584C28.6984 18.1902 28.6516 18.8874 28.5744 19.6756C28.4973 20.4582 28.3733 21.3042 28.2024 22.2136L26.4002 22.0317C26.6261 20.8137 26.7667 19.7169 26.8218 18.7414C26.8824 17.7659 26.9127 16.658 26.9127 15.418V15.3684H17.8684V13.8968H28.748V15.418ZM30.1204 25.537H16.496V24.0324H19.5549V19.2705H21.3902V24.0324H23.2917V19.2705H25.0939V24.0324H30.1204V25.537ZM44.7534 22.412H38.9994V24.3962H37.1806V22.412H31.129V20.957H44.7534V22.412ZM43.2653 27.1739H32.7659V23.4372H34.6012V25.7189H43.2653V27.1739ZM44.0093 15.2196H31.8069V13.8307H37.0153V12.4252H38.8506V13.8307H44.0093V15.2196ZM37.9246 15.7156C39.5175 15.7156 40.7438 15.9085 41.6036 16.2943C42.4689 16.6801 42.9015 17.2423 42.9015 17.9808C42.9015 18.7193 42.4689 19.287 41.6036 19.6838C40.7383 20.0807 39.512 20.2791 37.9246 20.2791C36.3373 20.2791 35.1138 20.0807 34.254 19.6838C33.3942 19.287 32.9643 18.7193 32.9643 17.9808C32.9643 17.2423 33.3915 16.6801 34.2457 16.2943C35.1055 15.9085 36.3318 15.7156 37.9246 15.7156ZM37.9246 17.0053C36.883 17.0053 36.1086 17.0852 35.6016 17.245C35.0945 17.4049 34.8437 17.6501 34.8492 17.9808C34.8437 18.3115 35.0945 18.5568 35.6016 18.7166C36.1086 18.8764 36.883 18.9563 37.9246 18.9563C38.9608 18.9563 39.7352 18.8764 40.2477 18.7166C40.7603 18.5568 41.0166 18.3115 41.0166 17.9808C41.0166 17.6501 40.7603 17.4049 40.2477 17.245C39.7352 17.0852 38.9608 17.0053 37.9246 17.0053ZM55.137 15.1203C55.137 15.7431 55.2693 16.3467 55.5338 16.9309C55.8039 17.5096 56.2035 18.0277 56.7326 18.4851C57.2672 18.9426 57.9148 19.298 58.6754 19.5516L57.7494 20.9735C56.9337 20.7035 56.2283 20.3039 55.633 19.7748C55.0378 19.2402 54.5721 18.6146 54.2359 17.8981C53.8997 18.6808 53.4202 19.3614 52.7974 19.9401C52.1801 20.5133 51.4443 20.946 50.59 21.2381L49.6145 19.8161C50.3971 19.5571 51.064 19.1878 51.6152 18.7083C52.1663 18.2233 52.5824 17.6722 52.8635 17.0549C53.1446 16.4321 53.2851 15.7872 53.2851 15.1203V14.9385H50.1271V13.4669H58.2455V14.9385H55.137V15.1203ZM61.5689 16.2612H63.6522V17.7989H61.5689V21.5357H59.7336V12.5244H61.5689V16.2612ZM61.5689 27.4716H59.7336V23.7017H51.6152V22.2302H61.5689V27.4716ZM69.8857 14.6739C69.8802 15.3629 70.0097 16.0132 70.2742 16.625C70.5388 17.2368 70.9356 17.7769 71.4647 18.2454C71.9993 18.7083 72.6469 19.0611 73.4075 19.3036L72.4155 20.7421C71.6108 20.461 70.9218 20.0586 70.3487 19.535C69.781 19.0114 69.3345 18.3887 69.0094 17.6666C68.6732 18.4989 68.1909 19.2209 67.5626 19.8327C66.9343 20.4389 66.1765 20.8964 65.2891 21.205L64.3136 19.7169C65.1183 19.4524 65.7989 19.0693 66.3556 18.5678C66.9123 18.0662 67.3311 17.4875 67.6122 16.8317C67.8933 16.1758 68.0338 15.4841 68.0338 14.7566V13.3346H69.8857V14.6739ZM76.9294 21.3208H75.094V16.9226H72.1178V15.418H75.094V12.5244H76.9294V21.3208ZM71.8698 21.7176C72.9225 21.7176 73.8319 21.8306 74.598 22.0565C75.3696 22.2825 75.9593 22.6132 76.3672 23.0486C76.775 23.4785 76.979 23.9938 76.979 24.5946C76.979 25.1953 76.775 25.7106 76.3672 26.1405C75.9593 26.5704 75.3724 26.8956 74.6063 27.1161C73.8402 27.342 72.928 27.455 71.8698 27.455C70.8171 27.455 69.9077 27.342 69.1416 27.1161C68.3811 26.8956 67.7968 26.5704 67.389 26.1405C66.9867 25.7106 66.7882 25.1953 66.7938 24.5946C66.7882 23.9938 66.9867 23.4785 67.389 23.0486C67.7968 22.6132 68.3838 22.2825 69.1499 22.0565C69.916 21.8306 70.8226 21.7176 71.8698 21.7176ZM71.8698 23.1395C70.8226 23.1395 70.018 23.2663 69.4558 23.5198C68.8936 23.7679 68.6125 24.1261 68.6125 24.5946C68.6125 25.052 68.8936 25.4048 69.4558 25.6528C70.0235 25.8953 70.8282 26.0165 71.8698 26.0165C72.9115 26.0165 73.7162 25.8925 74.2838 25.6445C74.857 25.3965 75.1436 25.0465 75.1436 24.5946C75.1436 24.1261 74.8598 23.7679 74.2921 23.5198C73.7244 23.2663 72.917 23.1395 71.8698 23.1395Z" fill="#262627"/>
</g>
<defs>
<filter id="filter0_d_4131_47932" x="0" y="0" width="95.0234" height="43.7539" filterUnits="userSpaceOnUse" color-interpolation-filters="sRGB">
<feFlood flood-opacity="0" result="BackgroundImageFix"/>
<feColorMatrix in="SourceAlpha" type="matrix" values="0 0 0 0 0 0 0 0 0 0 0 0 0 0 0 0 0 0 127 0" result="hardAlpha"/>
<feOffset dy="2"/>
<feGaussianBlur stdDeviation="1"/>
<feComposite in2="hardAlpha" operator="out"/>
<feColorMatrix type="matrix" values="0 0 0 0 0 0 0 0 0 0 0 0 0 0 0 0 0 0 0.25 0"/>
<feBlend mode="normal" in2="BackgroundImageFix" result="effect1_dropShadow_4131_47932"/>
<feBlend mode="normal" in="SourceGraphic" in2="effect1_dropShadow_4131_47932" result="shape"/>
</filter>
</defs>
</svg>
