<svg width="24" height="24" viewBox="0 0 24 24" fill="none" xmlns="http://www.w3.org/2000/svg">
<path d="M11.5549 20.8658C11.6849 20.9531 11.8402 21 11.9995 21C12.1588 21 12.3141 20.9531 12.4441 20.8658L12 20.2703L12.4451 20.8658L12.4533 20.8599L12.4749 20.8453L12.5569 20.7889C12.628 20.7402 12.7289 20.6692 12.8595 20.5758C14.3836 19.4845 15.8222 18.2898 17.1641 17.0011C18.3415 15.8647 19.5385 14.5366 20.4451 13.1277C21.3477 11.7266 22 10.1854 22 8.64033C22 6.80628 21.4 5.37308 20.3385 4.40011C19.2821 3.43297 17.8564 3 16.359 3C14.5897 3 13.0277 3.81049 12 5.05979C10.9723 3.81049 9.40923 3 7.64103 3C4.48205 3 2 5.56768 2 8.64033C2 10.1854 2.65333 11.7256 3.55487 13.1277C4.46154 14.5366 5.65846 15.8647 6.8359 17.0021C8.26647 18.3751 9.80678 19.6411 11.4431 20.7889L11.5251 20.8453L11.5467 20.8599L11.5549 20.8658Z" fill="#6F6F6F"/>
</svg>
