<svg width="24" height="24" viewBox="0 0 24 24" fill="none" xmlns="http://www.w3.org/2000/svg">
<path d="M16.7227 3.75C18.0405 3.75008 19.1619 4.13078 19.9463 4.85254C20.7198 5.5644 21.25 6.68537 21.25 8.34375C21.25 9.61684 20.7062 11.0025 19.8057 12.4082C18.9107 13.8052 17.7046 15.158 16.4775 16.3486C15.2534 17.5364 14.0261 18.5462 13.1035 19.2598C12.6473 19.6127 12.2667 19.8916 12 20.083C11.7333 19.8916 11.3527 19.6127 10.8965 19.2598C9.97387 18.5462 8.74661 17.5364 7.52246 16.3486C6.29538 15.158 5.08931 13.8052 4.19434 12.4082C3.29379 11.0025 2.75 9.61684 2.75 8.34375C2.75007 5.7984 4.78613 3.75024 7.27734 3.75C9.04417 3.75 10.5813 4.77802 11.3281 6.28711C11.4547 6.54248 11.715 6.7041 12 6.7041C12.285 6.7041 12.5453 6.54248 12.6719 6.28711C13.4187 4.77802 14.9558 3.75 16.7227 3.75Z" stroke="#6F6F6F" stroke-width="1.5" stroke-linecap="round" stroke-linejoin="round"/>
</svg>
