<svg width="326" height="60" viewBox="0 0 326 60" fill="none" xmlns="http://www.w3.org/2000/svg">
<rect x="0.5" y="0.5" width="325" height="59" rx="7.5" fill="white"/>
<rect x="0.5" y="0.5" width="325" height="59" rx="7.5" stroke="#B3E378"/>
<path d="M88.0664 27.5859H90.1172V21.3945H92.1875V37.8789H90.1172V29.3438H88.0664V34.1875H81.1328V22.9961H88.0664V27.5859ZM83.1641 32.4688H86.0352V24.7148H83.1641V32.4688ZM95.8203 38.7383H93.7305V21.082H95.8203V38.7383ZM112.578 33.8555H110.391V21.1016H112.578V33.8555ZM113.066 38.3867H100.898V32.5664H103.086V36.6289H113.066V38.3867ZM102.949 22.2539C103.835 22.2539 104.639 22.446 105.361 22.8301C106.084 23.2077 106.654 23.7318 107.07 24.4023C107.487 25.0729 107.695 25.8281 107.695 26.668C107.695 27.5208 107.487 28.2858 107.07 28.9629C106.654 29.6335 106.084 30.1576 105.361 30.5352C104.639 30.9128 103.835 31.1016 102.949 31.1016C102.057 31.1016 101.247 30.9128 100.518 30.5352C99.7949 30.1576 99.2253 29.6335 98.8086 28.9629C98.3919 28.2858 98.1836 27.5208 98.1836 26.668C98.1836 25.8281 98.3919 25.0729 98.8086 24.4023C99.2253 23.7318 99.7949 23.2077 100.518 22.8301C101.247 22.446 102.057 22.2539 102.949 22.2539ZM102.949 24.1484C102.448 24.1484 101.995 24.2526 101.592 24.4609C101.188 24.6693 100.872 24.9655 100.645 25.3496C100.417 25.7337 100.306 26.1732 100.312 26.668C100.306 27.1758 100.417 27.6217 100.645 28.0059C100.872 28.39 101.188 28.6862 101.592 28.8945C101.995 29.1029 102.448 29.207 102.949 29.207C103.438 29.207 103.88 29.1029 104.277 28.8945C104.674 28.6862 104.987 28.39 105.215 28.0059C105.449 27.6217 105.566 27.1758 105.566 26.668C105.566 26.1732 105.449 25.7337 105.215 25.3496C104.987 24.9655 104.674 24.6693 104.277 24.4609C103.88 24.2526 103.438 24.1484 102.949 24.1484ZM134.648 38.7383H132.461V21.082H134.648V38.7383ZM130.352 24.5781H128.652V32.498C129.59 32.4199 130.417 32.3385 131.133 32.2539L131.25 33.875C129.551 34.1484 127.777 34.3307 125.928 34.4219C124.079 34.513 122.129 34.5586 120.078 34.5586L119.863 32.7812L122.051 32.7617V24.5781H120.332V22.8008H130.352V24.5781ZM124.141 32.7129C124.935 32.6934 125.729 32.6641 126.523 32.625V24.5781H124.141V32.7129ZM151.523 31.1016H139.141V22.625H151.387V24.3828H141.289V29.3633H151.523V31.1016ZM153.32 36.4922H137.188V34.6953H153.32V36.4922ZM170.605 36.6875H154.473V34.8906H161.426V32.0195H156.387V26.2383H166.543V24.0508H156.348V22.293H168.691V27.957H158.555V30.2422H169.102V32.0195H163.574V34.8906H170.605V36.6875ZM190.703 27.0977H185.625V28.4453H192.598V30.1641H176.504V28.4453H183.457V27.0977H178.555V21.707H190.547V23.4648H180.723V25.3789H190.703V27.0977ZM190.586 35.5938H180.547V36.9023H191.074V38.5625H178.418V34.0703H188.457V32.8984H178.398V31.2969H190.586V35.5938ZM198.535 22.3711C199.421 22.3711 200.208 22.6283 200.898 23.1426C201.589 23.6504 202.129 24.3763 202.52 25.3203C202.917 26.2578 203.118 27.3516 203.125 28.6016C203.118 29.8646 202.917 30.9681 202.52 31.9121C202.129 32.8561 201.589 33.582 200.898 34.0898C200.208 34.5977 199.421 34.8516 198.535 34.8516C197.643 34.8516 196.849 34.5977 196.152 34.0898C195.456 33.5755 194.912 32.8464 194.521 31.9023C194.131 30.9583 193.939 29.8581 193.945 28.6016C193.939 27.3581 194.131 26.2643 194.521 25.3203C194.912 24.3763 195.456 23.6504 196.152 23.1426C196.849 22.6283 197.643 22.3711 198.535 22.3711ZM198.535 24.3242C198.04 24.3242 197.604 24.4967 197.227 24.8418C196.849 25.1803 196.556 25.6719 196.348 26.3164C196.139 26.9544 196.035 27.7161 196.035 28.6016C196.035 29.4935 196.139 30.2617 196.348 30.9062C196.556 31.5508 196.849 32.0456 197.227 32.3906C197.604 32.7292 198.04 32.8984 198.535 32.8984C199.036 32.8984 199.476 32.7292 199.854 32.3906C200.231 32.0456 200.521 31.5508 200.723 30.9062C200.931 30.2617 201.035 29.4935 201.035 28.6016C201.035 27.7161 200.931 26.9512 200.723 26.3066C200.521 25.6621 200.231 25.1706 199.854 24.832C199.476 24.4935 199.036 24.3242 198.535 24.3242ZM207.617 27.8594H210.332V29.6953H207.617V38.7383H205.449V21.082H207.617V27.8594ZM224.902 27.9766H227.52V29.793H224.902V38.6992H222.734V21.082H224.902V27.9766ZM220.234 22.918C220.234 28.7122 217.559 32.9245 212.207 35.5547L210.977 33.875C213.125 32.8073 214.782 31.515 215.947 29.998C217.119 28.4811 217.816 26.7201 218.037 24.7148H211.934V22.918H220.234ZM243.105 38.7383H240.918V21.082H243.105V38.7383ZM237.832 22.957C237.832 25.763 237.197 28.2272 235.928 30.3496C234.658 32.4655 232.552 34.2201 229.609 35.6133L228.477 33.875C230.749 32.7943 232.458 31.502 233.604 29.998C234.756 28.4876 235.43 26.7135 235.625 24.6758H229.375V22.957H237.832Z" fill="#6F6F6F"/>
</svg>
