<svg width="286" height="70" viewBox="0 0 286 70" fill="none" xmlns="http://www.w3.org/2000/svg">
<rect width="286" height="70" rx="6.67" fill="#03C75A"/>
<rect x="22.5" width="241" height="70" rx="6.66667" fill="#03C75A"/>
<g clip-path="url(#clip0_4406_10592)">
<path d="M53.2479 35.9404L43.3608 21.6693H35.166V48.3359H43.7508V34.0626L53.6379 48.3359H61.8327V21.6693H53.2479V35.9404Z" fill="white"/>
</g>
<path d="M102.284 31.03H96.614V28.84H102.284V20.95H104.834V45.31H102.284V31.03ZM110.114 46.6H107.564V20.38H110.114V46.6ZM100.484 39.07C98.624 39.52 95.054 39.88 91.784 39.94H89.294V23.2H91.934V37.66C94.514 37.66 98.294 37.39 100.094 36.88L100.484 39.07ZM135.561 46.6H132.891V20.38H135.561V46.6ZM114.861 31.6C114.861 26.41 116.961 22.36 121.611 22.36C126.261 22.36 128.331 26.41 128.331 31.63C128.331 36.82 126.261 40.9 121.611 40.9C116.961 40.9 114.861 36.82 114.861 31.6ZM125.691 31.63C125.691 27.58 124.311 24.64 121.611 24.64C118.941 24.64 117.561 27.58 117.561 31.63C117.561 35.68 118.941 38.59 121.611 38.59C124.311 38.59 125.691 35.68 125.691 31.63ZM158.908 32.23H154.198V29.98H158.908V20.38H161.548V46.6H158.908V32.23ZM153.028 40H140.698V22.51H143.308V29.11H150.358V22.48H153.028V40ZM150.358 37.84V31.21H143.308V37.84H150.358ZM197.396 43.27H173.726V41.11H184.166V36.97H176.576V28.54H191.816V24.7H176.516V22.54H194.456V30.7H179.216V34.81H195.176V36.97H186.836V41.11H197.396V43.27ZM223.353 42.79H199.683V40.63H223.353V42.79ZM220.203 23.35C220.203 29.32 219.753 35.35 218.973 38.74L216.393 38.41C217.053 35.89 217.503 29.44 217.503 25.48H202.143V23.35H220.203ZM247.15 39.43H244.48V20.38H247.15V39.43ZM247.75 45.79H229.9V37.63H232.57V43.66H247.75V45.79ZM233.23 22.15C237.28 22.15 240.25 24.94 240.25 28.69C240.25 32.47 237.28 35.08 233.23 35.08C229.21 35.08 226.24 32.47 226.24 28.72C226.24 24.94 229.21 22.15 233.23 22.15ZM233.23 24.43C230.77 24.43 229.03 26.23 229.03 28.66C229.03 31.06 230.77 32.86 233.23 32.86C235.81 32.86 237.43 31.09 237.43 28.69C237.43 26.2 235.81 24.43 233.23 24.43Z" fill="white"/>
<defs>
<clipPath id="clip0_4406_10592">
<rect width="26.6667" height="26.6667" fill="white" transform="translate(35.166 21.668)"/>
</clipPath>
</defs>
</svg>
