<svg width="405" height="70" viewBox="0 0 405 70" fill="none" xmlns="http://www.w3.org/2000/svg">
<rect width="405" height="70" rx="10" fill="#15CF5D"/>
<path d="M112.841 36.0563L101.72 20H92.5V50H102.158V33.945L113.28 50H122.5V20H112.841V36.0563Z" fill="white"/>
<path d="M149.879 38.1562C150.98 38.1406 152.02 38.0859 152.996 37.9922C153.98 37.8984 154.988 37.7422 156.02 37.5234L156.395 39.7266C155.152 40 153.941 40.1836 152.762 40.2773C151.582 40.3633 150.23 40.4062 148.707 40.4062H147.277V26.5078H149.879V38.1562ZM164.668 45.5859H162.184V24.3984H164.668V45.5859ZM160.121 44.5781H157.66V33.3516H153.23V31.2422H157.66V24.8438H160.121V44.5781ZM184.754 45.6094H182.129V24.3984H184.754V45.6094ZM173.34 25.9453C174.402 25.9453 175.348 26.2539 176.176 26.8711C177.012 27.4805 177.668 28.3516 178.145 29.4844C178.621 30.6094 178.863 31.9219 178.871 33.4219C178.863 34.9297 178.621 36.25 178.145 37.3828C177.676 38.5156 177.023 39.3906 176.188 40.0078C175.352 40.6172 174.402 40.9219 173.34 40.9219C172.27 40.9219 171.316 40.6172 170.48 40.0078C169.645 39.3906 168.988 38.5156 168.512 37.3828C168.043 36.25 167.809 34.9297 167.809 33.4219C167.809 31.9219 168.043 30.6094 168.512 29.4844C168.988 28.3516 169.645 27.4805 170.48 26.8711C171.316 26.2539 172.27 25.9453 173.34 25.9453ZM173.34 28.2891C172.738 28.2891 172.207 28.4922 171.746 28.8984C171.293 29.3047 170.941 29.8945 170.691 30.668C170.441 31.4414 170.316 32.3594 170.316 33.4219C170.316 34.4922 170.441 35.4141 170.691 36.1875C170.941 36.9609 171.293 37.5547 171.746 37.9688C172.207 38.375 172.738 38.5781 173.34 38.5781C173.934 38.5781 174.457 38.375 174.91 37.9688C175.363 37.5547 175.715 36.9609 175.965 36.1875C176.215 35.4141 176.34 34.4922 176.34 33.4219C176.34 32.3594 176.215 31.4453 175.965 30.6797C175.715 29.9062 175.363 29.3164 174.91 28.9102C174.457 28.4961 173.934 28.2891 173.34 28.2891ZM205.637 45.6094H203.059V34.125H198.746V40.4766H188.668V26.0391H191.293V31.3125H196.191V26.0391H198.746V31.9922H203.059V24.3984H205.637V45.6094ZM196.191 38.3906V33.3516H191.293V38.3906H196.191ZM227.973 43.125H208.613V40.9688H216.957V37.5234H210.91V30.5859H223.098V27.9609H210.863V25.8516H225.676V32.6484H213.512V35.3906H226.168V37.5234H219.535V40.9688H227.973V43.125ZM243.066 29.4844C243.059 30.7891 243.273 32.0586 243.711 33.293C244.148 34.5273 244.781 35.625 245.609 36.5859C246.438 37.5469 247.41 38.2656 248.527 38.7422L246.98 40.8281C245.785 40.2734 244.742 39.4648 243.852 38.4023C242.969 37.3398 242.277 36.1016 241.777 34.6875C241.277 36.2188 240.57 37.5625 239.656 38.7188C238.75 39.8672 237.668 40.7344 236.41 41.3203L234.816 39.1406C235.965 38.6484 236.961 37.9062 237.805 36.9141C238.656 35.9141 239.305 34.7695 239.75 33.4805C240.195 32.1836 240.418 30.8516 240.418 29.4844V26.1094H243.066V29.4844ZM252.676 45.6094H250.051V24.3984H252.676V45.6094ZM263.387 28.0781C263.387 28.9609 263.574 29.8164 263.949 30.6445C264.332 31.4648 264.898 32.1992 265.648 32.8477C266.406 33.4961 267.324 34 268.402 34.3594L267.09 36.375C265.934 35.9922 264.934 35.4258 264.09 34.6758C263.246 33.918 262.586 33.0312 262.109 32.0156C261.633 33.125 260.953 34.0898 260.07 34.9102C259.195 35.7227 258.152 36.3359 256.941 36.75L255.559 34.7344C256.668 34.3672 257.613 33.8438 258.395 33.1641C259.176 32.4766 259.766 31.6953 260.164 30.8203C260.562 29.9375 260.762 29.0234 260.762 28.0781V27.8203H256.285V25.7344H267.793V27.8203H263.387V28.0781ZM272.504 29.6953H275.457V31.875H272.504V37.1719H269.902V24.3984H272.504V29.6953ZM272.504 45.5859H269.902V40.2422H258.395V38.1562H272.504V45.5859ZM293.129 32.8359H296.387V34.9922H293.129V45.5859H290.551V24.3984H293.129V32.8359ZM288.91 29.7422H276.418V27.6562H281.434V24.7031H284.035V27.6562H288.91V29.7422ZM282.746 31.125C283.754 31.125 284.66 31.3398 285.465 31.7695C286.277 32.1914 286.914 32.7812 287.375 33.5391C287.836 34.2969 288.066 35.1562 288.066 36.1172C288.066 37.0781 287.836 37.9375 287.375 38.6953C286.914 39.4453 286.277 40.0312 285.465 40.4531C284.66 40.875 283.754 41.0859 282.746 41.0859C281.723 41.0859 280.805 40.875 279.992 40.4531C279.18 40.0312 278.543 39.4453 278.082 38.6953C277.621 37.9375 277.395 37.0781 277.402 36.1172C277.395 35.1562 277.621 34.2969 278.082 33.5391C278.543 32.7812 279.18 32.1914 279.992 31.7695C280.805 31.3398 281.723 31.125 282.746 31.125ZM282.746 33.2578C282.191 33.2578 281.695 33.375 281.258 33.6094C280.828 33.8438 280.492 34.1797 280.25 34.6172C280.008 35.0469 279.887 35.5469 279.887 36.1172C279.887 36.6875 280.008 37.1875 280.25 37.6172C280.492 38.0391 280.828 38.3672 281.258 38.6016C281.695 38.8281 282.191 38.9375 282.746 38.9297C283.285 38.9375 283.766 38.8281 284.188 38.6016C284.617 38.3672 284.953 38.0391 285.195 37.6172C285.445 37.1875 285.574 36.6875 285.582 36.1172C285.574 35.5469 285.445 35.0469 285.195 34.6172C284.953 34.1875 284.617 33.8555 284.188 33.6211C283.766 33.3789 283.285 33.2578 282.746 33.2578ZM314.973 45.5859H312.348V24.3984H314.973V45.5859ZM308.645 26.6484C308.645 30.0156 307.883 32.9727 306.359 35.5195C304.836 38.0586 302.309 40.1641 298.777 41.8359L297.418 39.75C300.145 38.4531 302.195 36.9023 303.57 35.0977C304.953 33.2852 305.762 31.1562 305.996 28.7109H298.496V26.6484H308.645Z" fill="white"/>
</svg>
