<svg width="24" height="24" viewBox="0 0 24 24" fill="none" xmlns="http://www.w3.org/2000/svg">
<path d="M5.26934 2.2253C4.97894 1.9249 4.50821 1.9249 4.2178 2.2253C3.9274 2.52571 3.9274 3.01265 4.2178 3.31305L12.4403 11.8187C12.537 11.9188 12.537 12.0812 12.4403 12.1813L4.2178 20.6869C3.9274 20.9874 3.9274 21.4743 4.2178 21.7747C4.50821 22.0751 4.97894 22.0751 5.26934 21.7747L13.4919 13.269C14.1694 12.5681 14.1694 11.4319 13.4919 10.731L5.26934 2.2253Z" fill="#6F6F6F"/>
<path d="M11.2693 2.2253C10.9789 1.9249 10.5082 1.9249 10.2178 2.2253C9.9274 2.52571 9.9274 3.01265 10.2178 3.31305L18.4403 11.8187C18.537 11.9188 18.537 12.0812 18.4403 12.1813L10.2178 20.6869C9.9274 20.9874 9.9274 21.4743 10.2178 21.7747C10.5082 22.0751 10.9789 22.0751 11.2693 21.7747L19.4919 13.269C20.1694 12.5681 20.1694 11.4319 19.4919 10.731L11.2693 2.2253Z" fill="#6F6F6F"/>
</svg>
