<svg width="60" height="60" viewBox="0 0 60 60" fill="none" xmlns="http://www.w3.org/2000/svg">
<path d="M39.7509 5.06589C39.4248 5.15401 39.1277 5.32647 38.8894 5.56592L33.7614 10.6944C33.5823 10.873 33.4402 11.0852 33.3433 11.3189C33.2464 11.5525 33.1965 11.803 33.1965 12.056C33.1965 12.3089 33.2464 12.5594 33.3433 12.7931C33.4402 13.0267 33.5823 13.2389 33.7614 13.4176L34.9665 14.6202L25.8078 23.7771C23.6797 22.4078 21.2618 21.7052 18.8619 22.0052C15.8287 22.3847 12.9134 23.8514 10.6904 26.0746C10.5109 26.2533 10.3685 26.4657 10.2714 26.6996C10.1742 26.9335 10.1242 27.1842 10.1242 27.4375C10.1242 27.6908 10.1742 27.9416 10.2714 28.1754C10.3685 28.4093 10.5109 28.6217 10.6904 28.8004L19.5824 37.6931L5.56496 51.7118C5.38587 51.8904 5.24379 52.1027 5.14685 52.3363C5.0499 52.57 5 52.8204 5 53.0734C5 53.3264 5.0499 53.5768 5.14685 53.8105C5.24379 54.0441 5.38587 54.2564 5.56496 54.435C5.74359 54.6141 5.95579 54.7562 6.18942 54.8531C6.42305 54.9501 6.67351 55 6.92645 55C7.17939 55 7.42985 54.9501 7.66347 54.8531C7.8971 54.7562 8.10931 54.6141 8.28794 54.435L22.3054 40.4164L31.1974 49.3091C31.376 49.4882 31.5882 49.6303 31.8219 49.7273C32.0555 49.8242 32.3059 49.8741 32.5589 49.8741C32.8118 49.8741 33.0623 49.8242 33.2959 49.7273C33.5295 49.6303 33.7417 49.4882 33.9204 49.3091C36.1459 47.0834 37.6126 44.1704 37.992 41.1369C38.292 38.7393 37.5869 36.3187 36.2177 34.193L45.3815 25.0335L46.584 26.2362C46.7627 26.4153 46.9749 26.5574 47.2085 26.6543C47.4421 26.7513 47.6926 26.8012 47.9455 26.8012C48.1985 26.8012 48.4489 26.7513 48.6826 26.6543C48.9162 26.5574 49.1284 26.4153 49.307 26.2362L54.435 21.1077C54.6141 20.9291 54.7562 20.7168 54.8532 20.4832C54.9501 20.2495 55 19.9991 55 19.7461C55 19.4931 54.9501 19.2427 54.8532 19.009C54.7562 18.7754 54.6141 18.5631 54.435 18.3845L41.615 5.56592C41.3761 5.32613 41.0783 5.15363 40.7514 5.06583C40.4246 4.97803 40.0803 4.97806 39.7535 5.06589" fill="#262627"/>
</svg>
