<svg width="48" height="48" viewBox="0 0 48 48" fill="none" xmlns="http://www.w3.org/2000/svg">
<rect width="48" height="48" rx="24" fill="#B3E378"/>
<path fill-rule="evenodd" clip-rule="evenodd" d="M25.4008 25.5908L32.3698 25.5868C32.7396 25.5866 33.0944 25.4395 33.356 25.1778C33.6176 24.9162 33.7647 24.5615 33.765 24.1917C33.7652 23.8219 33.6185 23.4673 33.3571 23.206C33.0958 22.9446 32.7412 22.7979 32.3714 22.7981L25.4011 22.8034L25.4057 15.8337C25.4058 15.6507 25.3698 15.4694 25.2998 15.3004C25.2298 15.1313 25.1271 14.9777 24.9977 14.8484C24.8683 14.719 24.7147 14.6165 24.5456 14.5465C24.3765 14.4766 24.1952 14.4407 24.0122 14.4409C23.8291 14.441 23.6478 14.4772 23.4787 14.5474C23.3095 14.6176 23.1558 14.7204 23.0263 14.8499C22.8968 14.9795 22.7941 15.1332 22.724 15.3024C22.6539 15.4716 22.6178 15.6529 22.6177 15.836L22.6144 22.8043L15.6454 22.8083C15.4603 22.8051 15.2764 22.8388 15.1044 22.9074C14.9325 22.976 14.7758 23.0782 14.6437 23.2079C14.5116 23.3377 14.4065 23.4924 14.3348 23.6631C14.263 23.8338 14.226 24.0171 14.2258 24.2021C14.2256 24.3872 14.2623 24.5705 14.3337 24.7411C14.4051 24.9118 14.5098 25.0665 14.6416 25.1962C14.7735 25.326 14.9299 25.4281 15.1017 25.4967C15.2736 25.5653 15.4574 25.5989 15.6425 25.5957L22.6135 25.591L22.6095 32.5614C22.6062 32.7464 22.6399 32.9303 22.7085 33.1021C22.7771 33.2739 22.8792 33.4303 23.0089 33.5622C23.1386 33.6941 23.2933 33.7988 23.464 33.8702C23.6347 33.9416 23.8179 33.9782 24.003 33.978C24.1881 33.9778 24.3713 33.9408 24.542 33.869C24.7127 33.7973 24.8675 33.6923 24.9972 33.5601C25.1269 33.428 25.2291 33.2714 25.2977 33.0994C25.3663 32.9274 25.4 32.7435 25.3968 32.5585L25.4008 25.5908Z" fill="#262626"/>
</svg>
