<svg width="326" height="60" viewBox="0 0 326 60" fill="none" xmlns="http://www.w3.org/2000/svg">
<rect width="326" height="60" rx="8" fill="#B3E378"/>
<path d="M77.7695 31.9805C78.9805 31.9805 80.0286 32.1139 80.9141 32.3809C81.806 32.6413 82.4896 33.0254 82.9648 33.5332C83.4401 34.0345 83.681 34.6367 83.6875 35.3398C83.681 36.0495 83.4401 36.6582 82.9648 37.166C82.4896 37.6803 81.806 38.071 80.9141 38.3379C80.0286 38.6048 78.9805 38.7383 77.7695 38.7383C76.5456 38.7383 75.4844 38.6048 74.5859 38.3379C73.6875 38.071 72.9974 37.6803 72.5156 37.166C72.0339 36.6582 71.793 36.0495 71.793 35.3398C71.793 34.6367 72.0339 34.0345 72.5156 33.5332C72.9974 33.0254 73.6842 32.6413 74.5762 32.3809C75.4746 32.1139 76.5391 31.9805 77.7695 31.9805ZM77.7695 33.6797C76.5456 33.6797 75.6048 33.8229 74.9473 34.1094C74.2897 34.3893 73.9609 34.7995 73.9609 35.3398C73.9609 35.8867 74.2897 36.3034 74.9473 36.5898C75.6113 36.8763 76.5521 37.0195 77.7695 37.0195C78.987 37.0195 79.918 36.8763 80.5625 36.5898C81.2135 36.3034 81.5391 35.8867 81.5391 35.3398C81.5391 34.7995 81.2135 34.3893 80.5625 34.1094C79.918 33.8229 78.987 33.6797 77.7695 33.6797ZM83.5117 25.3008H85.9727V27.1172H83.5117V31.5508H81.3438V21.082H83.5117V25.3008ZM72.3398 24.5781H76.4609V22.1953H78.6094V30.4375H70.1914V22.1953H72.3398V24.5781ZM76.4609 28.7188V26.2773H72.3398V28.7188H76.4609ZM101.031 23.3086C101.031 24.2526 101.005 25.0957 100.953 25.8379C100.908 26.5736 100.79 27.4036 100.602 28.3281H103.004V30.0859H86.8711V28.3281H98.4043C98.5931 27.4688 98.7168 26.681 98.7754 25.9648C98.834 25.2487 98.8633 24.487 98.8633 23.6797H88.8633V21.9414H101.031V23.3086ZM101.012 38.5234H88.8047V32.1367H101.012V38.5234ZM90.9336 36.7656H98.8633V33.8359H90.9336V36.7656ZM115.23 24.1484C115.23 24.8841 115.387 25.597 115.699 26.2871C116.018 26.9707 116.49 27.5827 117.115 28.123C117.747 28.6634 118.512 29.0833 119.41 29.3828L118.316 31.0625C117.353 30.7435 116.52 30.2715 115.816 29.6465C115.113 29.015 114.563 28.276 114.166 27.4297C113.769 28.3542 113.202 29.1582 112.467 29.8418C111.738 30.5189 110.868 31.0299 109.859 31.375L108.707 29.6953C109.632 29.3893 110.419 28.9531 111.07 28.3867C111.721 27.8138 112.213 27.1628 112.545 26.4336C112.877 25.6979 113.043 24.9362 113.043 24.1484V23.9336H109.312V22.1953H118.902V23.9336H115.23V24.1484ZM122.828 25.4961H125.289V27.3125H122.828V31.7266H120.66V21.082H122.828V25.4961ZM122.828 38.7383H120.66V34.2852H111.07V32.5469H122.828V38.7383ZM132.652 23.6211C132.646 24.4349 132.799 25.2031 133.111 25.9258C133.424 26.6484 133.893 27.2865 134.518 27.8398C135.149 28.3867 135.914 28.8034 136.812 29.0898L135.641 30.7891C134.69 30.457 133.876 29.9818 133.199 29.3633C132.529 28.7448 132.001 28.0091 131.617 27.1562C131.22 28.1393 130.65 28.9922 129.908 29.7148C129.166 30.431 128.271 30.9714 127.223 31.3359L126.07 29.5781C127.021 29.2656 127.825 28.8132 128.482 28.2207C129.14 27.6283 129.635 26.9447 129.967 26.1699C130.299 25.3952 130.465 24.5781 130.465 23.7188V22.0391H132.652V23.6211ZM140.973 31.4727H138.805V26.2773H135.289V24.5H138.805V21.082H140.973V31.4727ZM134.996 31.9414C136.24 31.9414 137.314 32.0749 138.219 32.3418C139.13 32.6087 139.827 32.9993 140.309 33.5137C140.79 34.0215 141.031 34.6302 141.031 35.3398C141.031 36.0495 140.79 36.6582 140.309 37.166C139.827 37.6738 139.133 38.0579 138.229 38.3184C137.324 38.5853 136.246 38.7188 134.996 38.7188C133.753 38.7188 132.678 38.5853 131.773 38.3184C130.875 38.0579 130.185 37.6738 129.703 37.166C129.228 36.6582 128.993 36.0495 129 35.3398C128.993 34.6302 129.228 34.0215 129.703 33.5137C130.185 32.9993 130.878 32.6087 131.783 32.3418C132.688 32.0749 133.759 31.9414 134.996 31.9414ZM134.996 33.6211C133.759 33.6211 132.809 33.7708 132.145 34.0703C131.48 34.3633 131.148 34.7865 131.148 35.3398C131.148 35.8802 131.48 36.2969 132.145 36.5898C132.815 36.8763 133.766 37.0195 134.996 37.0195C136.227 37.0195 137.177 36.873 137.848 36.5801C138.525 36.2871 138.863 35.8737 138.863 35.3398C138.863 34.7865 138.528 34.3633 137.857 34.0703C137.187 33.7708 136.233 33.6211 134.996 33.6211ZM157.398 26.6484H159.859V28.4453H157.398V34.2852H155.23V21.1016H157.398V26.6484ZM153.961 24.793H143.492V23.0547H147.652V21.082H149.82V23.0547H153.961V24.793ZM148.727 25.5156C149.566 25.5156 150.312 25.6556 150.963 25.9355C151.614 26.2155 152.122 26.6126 152.486 27.127C152.851 27.6348 153.036 28.224 153.043 28.8945C153.036 29.5586 152.851 30.1445 152.486 30.6523C152.122 31.1536 151.614 31.5443 150.963 31.8242C150.312 32.0977 149.566 32.2344 148.727 32.2344C147.88 32.2344 147.128 32.0977 146.471 31.8242C145.813 31.5443 145.302 31.1536 144.938 30.6523C144.573 30.1445 144.391 29.5586 144.391 28.8945C144.391 28.224 144.573 27.6348 144.938 27.127C145.302 26.6126 145.813 26.2155 146.471 25.9355C147.128 25.6556 147.88 25.5156 148.727 25.5156ZM148.727 27.1953C148.043 27.1953 147.499 27.3451 147.096 27.6445C146.699 27.944 146.5 28.3607 146.5 28.8945C146.5 29.4154 146.702 29.8255 147.105 30.125C147.509 30.4245 148.049 30.5677 148.727 30.5547C149.404 30.5677 149.947 30.4245 150.357 30.125C150.768 29.8255 150.973 29.4154 150.973 28.8945C150.973 28.3607 150.768 27.944 150.357 27.6445C149.954 27.3451 149.41 27.1953 148.727 27.1953ZM158.102 38.3867H146.09V33.25H148.258V36.6289H158.102V38.3867ZM179.664 22.9961C179.664 23.8164 179.641 24.5618 179.596 25.2324C179.557 25.8965 179.459 26.6354 179.303 27.4492H181.637V29.168H165.504V27.4492H177.115C177.258 26.7266 177.356 26.0592 177.408 25.4473C177.46 24.8288 177.49 24.194 177.496 23.543H167.496V21.8242H179.664V22.9961ZM179.645 35.3594H169.547V36.8633H180.094V38.5625H167.379V33.6992H177.477V32.2734H167.359V30.5742H179.645V35.3594ZM203.668 36.6094H187.535V34.832H194.488V31.3945H189.312V22.2539H191.48V25.1445H199.664V22.2539H201.832V31.3945H196.637V34.832H203.668V36.6094ZM199.664 29.6367V26.8828H191.48V29.6367H199.664ZM219.605 38.7578H217.438V29.3633H214.41V27.5859H217.438V21.082H219.605V38.7578ZM213.395 29.0898H207.613V32.8008C209.065 32.7943 210.335 32.7552 211.422 32.6836C212.516 32.612 213.616 32.4753 214.723 32.2734L214.898 34.0508C213.655 34.2721 212.421 34.4219 211.197 34.5C209.973 34.5781 208.531 34.6172 206.871 34.6172H205.465V27.332H211.266V24.3828H205.406V22.625H213.395V29.0898ZM235.934 27.9766H238.551V29.793H235.934V38.6992H233.766V21.082H235.934V27.9766ZM231.266 22.918C231.266 28.7122 228.59 32.9245 223.238 35.5547L222.008 33.875C224.156 32.8073 225.813 31.515 226.979 29.998C228.15 28.4811 228.847 26.7201 229.068 24.7148H222.965V22.918H231.266ZM254.137 38.7383H251.949V21.082H254.137V38.7383ZM248.863 22.957C248.863 25.763 248.229 28.2272 246.959 30.3496C245.689 32.4655 243.583 34.2201 240.641 35.6133L239.508 33.875C241.78 32.7943 243.489 31.502 244.635 29.998C245.787 28.4876 246.461 26.7135 246.656 24.6758H240.406V22.957H248.863Z" fill="#262627"/>
</svg>
