<svg width="24" height="24" viewBox="0 0 24 24" fill="none" xmlns="http://www.w3.org/2000/svg">
<path d="M18.7307 2.2253C19.0211 1.9249 19.4918 1.9249 19.7822 2.2253C20.0726 2.52571 20.0726 3.01265 19.7822 3.31305L11.5597 11.8187C11.463 11.9188 11.463 12.0812 11.5597 12.1813L19.7822 20.6869C20.0726 20.9874 20.0726 21.4743 19.7822 21.7747C19.4918 22.0751 19.0211 22.0751 18.7307 21.7747L10.5081 13.269C9.83062 12.5681 9.83062 11.4319 10.5081 10.731L18.7307 2.2253Z" fill="#6F6F6F"/>
<path d="M12.7307 2.2253C13.0211 1.9249 13.4918 1.9249 13.7822 2.2253C14.0726 2.52571 14.0726 3.01265 13.7822 3.31305L5.55967 11.8187C5.46297 11.9188 5.46297 12.0812 5.55967 12.1813L13.7822 20.6869C14.0726 20.9874 14.0726 21.4743 13.7822 21.7747C13.4918 22.0751 13.0211 22.0751 12.7307 21.7747L4.50813 13.269C3.83062 12.5681 3.83062 11.4319 4.50813 10.731L12.7307 2.2253Z" fill="#6F6F6F"/>
</svg>
