<svg width="20" height="20" viewBox="0 0 20 20" fill="none" xmlns="http://www.w3.org/2000/svg">
<circle cx="10" cy="10" r="10" fill="#1D1D1D"/>
<path fill-rule="evenodd" clip-rule="evenodd" d="M7.45139 6.86111C7.45139 6.23491 7.70015 5.63435 8.14294 5.19155C8.58574 4.74876 9.18629 4.5 9.8125 4.5C10.4387 4.5 11.0393 4.74876 11.4821 5.19155C11.9249 5.63435 12.1736 6.23491 12.1736 6.86111C12.1736 7.48732 11.9249 8.08787 11.4821 8.53067C11.0393 8.97346 10.4387 9.22222 9.8125 9.22222C9.18629 9.22222 8.58574 8.97346 8.14294 8.53067C7.70015 8.08787 7.45139 7.48732 7.45139 6.86111ZM7.45139 10.4028C6.66863 10.4028 5.91793 10.7137 5.36444 11.2672C4.81095 11.8207 4.5 12.5714 4.5 13.3542C4.5 13.8238 4.68657 14.2742 5.01867 14.6063C5.35076 14.9384 5.80118 15.125 6.27083 15.125H13.3542C13.8238 15.125 14.2742 14.9384 14.6063 14.6063C14.9384 14.2742 15.125 13.8238 15.125 13.3542C15.125 12.5714 14.8141 11.8207 14.2606 11.2672C13.7071 10.7137 12.9564 10.4028 12.1736 10.4028H7.45139Z" fill="#B3E378"/>
</svg>
