<svg width="80" height="80" viewBox="0 0 80 80" fill="none" xmlns="http://www.w3.org/2000/svg">
<rect x="16.666" y="16.666" width="46.6667" height="46.6667" fill="#B3E378"/>
<path fill-rule="evenodd" clip-rule="evenodd" d="M62.2216 6.66602C65.0557 6.66586 67.7827 7.7487 69.8448 9.69299C71.9068 11.6373 73.1479 14.296 73.3142 17.1253L73.3327 17.7771V62.2216C73.3328 65.0557 72.25 67.7827 70.3057 69.8448C68.3614 71.9068 65.7027 73.1479 62.8734 73.3142L62.2216 73.3327H17.7771C14.943 73.3328 12.216 72.25 10.1539 70.3057C8.09192 68.3614 6.8508 65.7027 6.68453 62.8734L6.66602 62.2216V17.7771C6.66586 14.943 7.7487 12.216 9.69299 10.1539C11.6373 8.09192 14.296 6.8508 17.1253 6.68453L17.7771 6.66602H62.2216ZM27.0364 47.4068C25.6553 47.4068 24.3238 47.9213 23.3015 48.8498C22.2792 49.7783 21.6393 51.0543 21.5068 52.429L21.4808 52.9623L21.5068 53.5327C21.64 54.9069 22.2801 56.1822 23.3024 57.1101C24.3246 58.0381 25.6558 58.5521 27.0364 58.5521C28.417 58.5521 29.7482 58.0381 30.7704 57.1101C31.7927 56.1822 32.4328 54.9069 32.566 53.5327L32.5919 52.9993L32.566 52.429C32.4334 51.0543 31.7936 49.7783 30.7713 48.8498C29.7489 47.9213 28.4174 47.4068 27.0364 47.4068ZM52.9623 47.4068C51.5813 47.4068 50.2498 47.9213 49.2274 48.8498C48.2051 49.7783 47.5653 51.0543 47.4327 52.429L47.4068 52.9993C47.4075 54.4261 47.957 55.7978 48.9416 56.8304C49.9262 57.863 51.2702 58.4772 52.6953 58.5457C54.1204 58.6143 55.5172 58.132 56.5964 57.1987C57.6755 56.2654 58.3543 54.9528 58.4919 53.5327L58.5179 52.9623C58.5179 51.4889 57.9325 50.0758 56.8907 49.0339C55.8488 47.9921 54.4357 47.4068 52.9623 47.4068ZM39.9993 34.4438C38.6183 34.4439 37.2868 34.9583 36.2645 35.8868C35.2421 36.8153 34.6023 38.0913 34.4697 39.466L34.4438 40.0364C34.4445 41.4631 34.9941 42.8349 35.9786 43.8674C36.9632 44.9 38.3073 45.5142 39.7324 45.5828C41.1574 45.6513 42.5543 45.169 43.6334 44.2357C44.7126 43.3025 45.3913 41.9898 45.529 40.5697L45.5549 39.9993C45.5549 38.5259 44.9696 37.1128 43.9277 36.071C42.8859 35.0291 41.4728 34.4438 39.9993 34.4438ZM27.0364 21.4808C25.6553 21.4809 24.3238 21.9953 23.3015 22.9239C22.2792 23.8524 21.6393 25.1284 21.5068 26.5031L21.4808 27.0364L21.5068 27.6068C21.64 28.9809 22.2801 30.2563 23.3024 31.1842C24.3246 32.1122 25.6558 32.6262 27.0364 32.6262C28.417 32.6262 29.7482 32.1122 30.7704 31.1842C31.7927 30.2563 32.4328 28.9809 32.566 27.6068L32.5919 27.0734L32.566 26.5031C32.4334 25.1284 31.7936 23.8524 30.7713 22.9239C29.7489 21.9953 28.4174 21.4809 27.0364 21.4808ZM52.9623 21.4808C51.5813 21.4809 50.2498 21.9953 49.2274 22.9239C48.2051 23.8524 47.5653 25.1284 47.4327 26.5031L47.4068 27.0734C47.4075 28.5002 47.957 29.8719 48.9416 30.9045C49.9262 31.937 51.2702 32.5512 52.6953 32.6198C54.1204 32.6884 55.5172 32.206 56.5964 31.2728C57.6755 30.3395 58.3543 29.0268 58.4919 27.6068L58.5179 27.0364C58.5179 25.563 57.9325 24.1499 56.8907 23.108C55.8488 22.0661 54.4357 21.4808 52.9623 21.4808Z" fill="#262627"/>
</svg>
