<svg width="47" height="67" viewBox="0 0 47 67" fill="none" xmlns="http://www.w3.org/2000/svg">
<path d="M7.43181 0.25557C7.69764 0.0420139 8.00461 0.0176083 8.34323 0.00845586C9.35593 -0.00374735 11.549 0.00845456 14.3434 0.00235295C22.1791 0.0145562 32.0465 -0.00679945 37.8126 0.00235295C38.6374 0.0219857 39.2636 0.605608 39.7625 1.2627C41.6305 3.7229 43.8787 7.39419 45.5185 9.63984C46.2417 10.7389 46.5849 11.9632 46.6057 13.2787C46.7513 22.4708 46.5835 53.6872 46.6356 66.278C46.6245 66.4935 46.4381 66.6455 46.2225 66.6549C46.2014 66.6558 46.1798 66.6563 46.1578 66.6563C45.3539 66.6685 42.8918 66.6563 39.4708 66.6624C30.1446 66.6746 4.04879 66.6563 0.577155 66.6624C-0.0969178 66.6776 0.0106807 66.4061 0.0011867 65.7502C0.0011867 53.6049 0.0011867 29.0124 0.0011867 13.8194C0.0011867 13.2276 0.0011867 12.6998 0.0011867 12.1354C0.0011867 11.3849 -0.0367893 11.3605 0.871468 9.97237C1.12781 9.59102 1.37465 9.19747 1.65314 8.78561C3.0361 6.68056 4.69754 4.16975 6.03936 2.12571C6.70077 1.1281 7.08053 0.536245 7.40966 0.270825L7.43181 0.25557Z" fill="#262627"/>
<path d="M35.4997 52.1226C32.9797 51.4624 30.906 50.0066 29.4298 48.0852C29.0222 47.558 28.2759 46.2623 27.3726 46.6909C26.2241 47.2378 26.8548 48.8513 27.2349 49.6322C27.86 50.9205 28.9066 52.1521 30.1954 53.0981C31.6578 54.1745 33.4424 54.8864 35.2876 54.9037C36.2322 54.9135 36.9483 54.2164 36.94 53.3937C36.9345 52.5956 36.246 52.3197 35.4997 52.1226ZM24.6791 39.1014C24.3789 38.456 24.1724 37.6407 23.6133 37.1258C23.1562 36.7071 20.7932 37.2071 20.1873 37.2859C17.5545 37.6234 14.8996 38.5743 13.0048 40.2912C11.4488 41.6978 10.54 44.1241 11.5535 45.9914C11.8729 46.5826 12.3797 47.0728 12.9911 47.4324C13.9798 48.0138 15.164 47.6566 16.1802 48.0606C16.8412 48.3217 17.0891 49.004 17.6757 49.3513C18.5349 49.8637 19.5704 50.1002 20.6004 50.0632C20.7189 50.0608 20.84 50.0534 20.9557 50.0411C22.7376 49.8785 24.7645 48.4818 25.5301 47.0826C26.4032 45.4839 26.2902 43.5822 25.7973 41.9022C25.5136 40.9366 25.1088 40.0202 24.6791 39.1014ZM38.5759 37.8944C37.2182 34.5541 32.6272 34.4162 29.3141 34.9236C28.2456 35.0862 26.786 35.3621 25.8716 35.8941C25.7532 35.9631 25.5687 36.074 25.4888 36.175C25.3952 36.2883 25.4007 36.3646 25.4448 36.4484C26.125 37.786 26.6978 39.1679 27.1743 40.5745C27.6232 41.9096 27.8545 43.363 28.5733 44.6119C29.562 46.3387 30.9473 46.9816 33.0624 47.191C33.839 47.2674 34.5936 46.9964 35.194 46.5924C36.0725 46.0061 36.8051 45.2942 37.075 44.3163C37.1934 43.8827 37.1962 43.4714 37.1962 43.0156C37.1962 42.5057 36.8905 41.949 37.4991 41.6214C39.0524 40.7888 39.1322 39.264 38.5759 37.8944ZM20.8428 35.8818C21.3991 35.7414 21.9664 35.6577 22.5282 35.5887C23.1782 35.5074 22.5861 33.9752 22.4952 33.7042C21.512 30.7556 20.2066 27.0261 16.3482 26.3142C14.6986 26.0088 12.1814 26.6739 11.5012 28.1691C11.2505 28.7209 11.3332 29.2752 11.2368 29.8467C9.05834 30.5906 7.22416 32.8174 7.9347 34.9088C8.48 36.51 10.226 37.3352 12.0409 37.4017C15.1778 37.5175 17.885 36.6258 20.8428 35.8818ZM24.7452 34.894C25.789 34.8325 26.8245 34.3398 27.8215 34.0861C30.0357 33.517 32.5061 33.5688 34.5165 32.4553C35.0315 32.1721 35.3179 31.635 35.5355 31.1448C36.0753 29.9403 36.202 28.4081 35.3179 27.307C34.3099 26.0556 31.9442 25.6959 30.3414 26.0408C30.0357 26.1073 29.8126 26.0852 29.6915 25.8093C29.4408 25.2575 29.0608 24.7821 28.5954 24.4126C27.6342 23.6538 26.3095 23.3287 24.9876 23.6612C23.9328 23.9248 23.1093 24.6219 22.6494 25.4964C21.2669 28.1322 22.7899 31.9036 24.1256 34.3521C24.2523 34.5861 24.434 34.9137 24.7452 34.894Z" fill="#B3E378"/>
<ellipse cx="23.3342" cy="7.8454" rx="3.88889" ry="3.92157" fill="#B3E378"/>
</svg>
