<svg width="24" height="24" viewBox="0 0 24 24" fill="none" xmlns="http://www.w3.org/2000/svg">
<path d="M11.7692 3.48148V2.74074C11.7692 2.54428 11.8462 2.35587 11.9833 2.21696C12.1203 2.07804 12.3062 2 12.5 2C12.6938 2 12.8797 2.07804 13.0167 2.21696C13.1538 2.35587 13.2308 2.54428 13.2308 2.74074V3.48148C13.2308 3.67794 13.1538 3.86635 13.0167 4.00526C12.8797 4.14418 12.6938 4.22222 12.5 4.22222C12.3062 4.22222 12.1203 4.14418 11.9833 4.00526C11.8462 3.86635 11.7692 3.67794 11.7692 3.48148ZM19.0769 6.44444C19.1729 6.44452 19.268 6.42543 19.3567 6.38825C19.4454 6.35107 19.526 6.29654 19.5939 6.22778L20.3247 5.48704C20.4618 5.34804 20.5389 5.15953 20.5389 4.96296C20.5389 4.7664 20.4618 4.57788 20.3247 4.43889C20.1876 4.2999 20.0016 4.22181 19.8077 4.22181C19.6138 4.22181 19.4278 4.2999 19.2907 4.43889L18.5599 5.17963C18.4576 5.28323 18.3879 5.41527 18.3597 5.55903C18.3314 5.7028 18.3459 5.85183 18.4012 5.98725C18.4566 6.12268 18.5503 6.23841 18.6706 6.31979C18.7909 6.40118 18.9323 6.44456 19.0769 6.44444ZM5.40606 6.22778C5.54318 6.36677 5.72916 6.44486 5.92308 6.44486C6.117 6.44486 6.30297 6.36677 6.4401 6.22778C6.57722 6.08878 6.65425 5.90027 6.65425 5.7037C6.65425 5.50714 6.57722 5.31862 6.4401 5.17963L5.70933 4.43889C5.5722 4.2999 5.38623 4.22181 5.19231 4.22181C4.99839 4.22181 4.81241 4.2999 4.67529 4.43889C4.53817 4.57788 4.46113 4.7664 4.46113 4.96296C4.46113 5.15953 4.53817 5.34804 4.67529 5.48704L5.40606 6.22778ZM22 18.2963V20.5185C22 20.9114 21.846 21.2883 21.5719 21.5661C21.2978 21.8439 20.9261 22 20.5385 22H4.46154C4.07391 22 3.70217 21.8439 3.42807 21.5661C3.15398 21.2883 3 20.9114 3 20.5185V18.2963C3 17.9034 3.15398 17.5266 3.42807 17.2487C3.70217 16.9709 4.07391 16.8148 4.46154 16.8148V13.8519C4.46151 12.7766 4.67144 11.7119 5.07923 10.7193C5.48702 9.72665 6.08461 8.82564 6.83755 8.0682C7.59048 7.31075 8.48387 6.71186 9.46622 6.30605C10.4486 5.90023 11.5004 5.69552 12.5612 5.7037C16.9595 5.73704 20.5385 9.43426 20.5385 13.9444V16.8148C20.9261 16.8148 21.2978 16.9709 21.5719 17.2487C21.846 17.5266 22 17.9034 22 18.2963ZM13.1102 10.138C14.8449 10.4333 16.1538 12.0296 16.1538 13.8519C16.1538 14.0483 16.2308 14.2367 16.3679 14.3756C16.5049 14.5146 16.6908 14.5926 16.8846 14.5926C17.0784 14.5926 17.2643 14.5146 17.4013 14.3756C17.5384 14.2367 17.6154 14.0483 17.6154 13.8519C17.6154 11.3148 15.7821 9.08981 13.3513 8.67685C13.2563 8.65981 13.1588 8.66203 13.0646 8.68338C12.9704 8.70474 12.8813 8.7448 12.8025 8.80126C12.7236 8.85771 12.6566 8.92945 12.6052 9.01231C12.5539 9.09518 12.5193 9.18753 12.5033 9.28405C12.4874 9.38056 12.4905 9.47931 12.5124 9.57461C12.5344 9.6699 12.5747 9.75984 12.6311 9.83924C12.6876 9.91864 12.759 9.98591 12.8412 10.0372C12.9234 10.0885 13.0148 10.1227 13.1102 10.138ZM20.5385 20.5185V18.2963H4.46154V20.5185H20.5385Z" fill="#6F6F6F"/>
</svg>
