<svg width="30" height="30" viewBox="0 0 30 30" fill="none" xmlns="http://www.w3.org/2000/svg">
<path d="M25.5429 24.4573C25.9334 24.0668 25.9334 23.4337 25.5429 23.0431L20.3842 17.8845C20.0488 17.549 20.0009 17.0267 20.2237 16.6078C21.1063 14.9485 21.4346 13.0414 21.1467 11.1695C20.8174 9.02802 19.7053 7.08492 18.0256 5.71637C16.346 4.34782 14.2182 3.65118 12.0544 3.76132C9.8906 3.87146 7.84461 4.78055 6.31258 6.31258C4.78055 7.84461 3.87146 9.8906 3.76132 12.0544C3.65118 14.2182 4.34782 16.346 5.71637 18.0256C7.08492 19.7053 9.02802 20.8174 11.1695 21.1467C13.0414 21.4346 14.9485 21.1063 16.6078 20.2237C17.0267 20.0009 17.549 20.0488 17.8845 20.3842L23.0431 25.5429C23.4337 25.9334 24.0668 25.9334 24.4573 25.5429L25.5429 24.4573ZM6.25187 12.5013C6.25187 9.05536 9.05536 6.25187 12.5013 6.25187C15.9472 6.25187 18.7507 9.05536 18.7507 12.5013C18.7507 15.9472 15.9472 18.7507 12.5013 18.7507C9.05536 18.7507 6.25187 15.9472 6.25187 12.5013Z" fill="#1D1D1D"/>
</svg>
