<svg width="16" height="17" viewBox="0 0 16 17" fill="none" xmlns="http://www.w3.org/2000/svg">
<path d="M7.08301 0C10.9949 0 14.1668 3.17114 14.167 7.08301L14.1572 7.44824C14.0661 9.2442 13.304 10.8617 12.1191 12.0605L15.6484 15.5898C15.8947 15.8362 15.8948 16.2361 15.6484 16.4824C15.4022 16.7283 15.0031 16.7282 14.7568 16.4824L11.1543 12.8789C10.0023 13.6897 8.59868 14.167 7.08301 14.167L6.71875 14.1572C2.97617 13.9675 0 10.8727 0 7.08301C0.000175742 3.17125 3.17125 0.000175745 7.08301 0ZM7.08301 1.25C3.8616 1.25018 1.25018 3.8616 1.25 7.08301C1.25 10.3046 3.8615 12.9168 7.08301 12.917C10.3047 12.917 12.917 10.3047 12.917 7.08301C12.9168 3.8615 10.3046 1.25 7.08301 1.25Z" fill="#6F6F6F"/>
</svg>
