<svg width="23" height="23" viewBox="0 0 23 23" fill="none" xmlns="http://www.w3.org/2000/svg">
<path d="M21.7929 20.7073C22.1834 20.3168 22.1834 19.6837 21.7929 19.2931L16.6342 14.1345C16.2988 13.799 16.2509 13.2767 16.4737 12.8578C17.3563 11.1985 17.6846 9.29139 17.3967 7.41947C17.0674 5.27802 15.9553 3.33492 14.2756 1.96637C12.596 0.597822 10.4682 -0.0988211 8.30442 0.0113206C6.1406 0.121462 4.09461 1.03055 2.56258 2.56258C1.03055 4.09461 0.121462 6.1406 0.0113206 8.30442C-0.0988211 10.4682 0.597822 12.596 1.96637 14.2756C3.33492 15.9553 5.27802 17.0674 7.41947 17.3967C9.29139 17.6846 11.1985 17.3563 12.8578 16.4737C13.2767 16.2509 13.799 16.2988 14.1345 16.6342L19.2931 21.7929C19.6837 22.1834 20.3168 22.1834 20.7073 21.7929L21.7929 20.7073ZM2.50187 8.75129C2.50187 5.30536 5.30536 2.50187 8.75129 2.50187C12.1972 2.50187 15.0007 5.30536 15.0007 8.75129C15.0007 12.1972 12.1972 15.0007 8.75129 15.0007C5.30536 15.0007 2.50187 12.1972 2.50187 8.75129Z" fill="#1D1D1D"/>
</svg>
