<svg width="60" height="60" viewBox="0 0 60 60" fill="none" xmlns="http://www.w3.org/2000/svg">
<path d="M21.4637 20.0946L27.9599 6.32617C28.149 5.9277 28.4398 5.59256 28.7998 5.35832C29.1597 5.12408 29.5745 5 29.9977 5C30.4209 5 30.8358 5.12408 31.1957 5.35832C31.5557 5.59256 31.8465 5.9277 32.0356 6.32617L38.5318 20.0946L53.0544 22.3157C53.4733 22.3768 53.8674 22.5606 54.1917 22.8462C54.5161 23.1318 54.7577 23.5076 54.8888 23.9307C55.02 24.3539 55.0354 24.8073 54.9334 25.2392C54.8315 25.6712 54.6162 26.0642 54.3121 26.3736L43.8052 37.0841L46.2857 52.2157C46.6032 54.1578 44.6529 55.6368 42.9851 54.721L29.9977 47.5736L17.0079 54.721C15.3426 55.6394 13.3923 54.1578 13.7098 52.2131L16.1903 37.0815L5.68339 26.3709C5.3808 26.0614 5.1668 25.6687 5.06569 25.2375C4.96459 24.8064 4.98045 24.354 5.11146 23.9318C5.24248 23.5097 5.4834 23.1347 5.80684 22.8494C6.13027 22.5642 6.52326 22.3802 6.94112 22.3183L21.4637 20.0946Z" fill="#262627"/>
</svg>
