<svg width="30" height="30" viewBox="0 0 30 30" fill="none" xmlns="http://www.w3.org/2000/svg">
<path d="M11.5855 11.0378L14.184 5.53047C14.2596 5.37108 14.3759 5.23702 14.5199 5.14333C14.6639 5.04963 14.8298 5 14.9991 5C15.1684 5 15.3343 5.04963 15.4783 5.14333C15.6223 5.23702 15.7386 5.37108 15.8142 5.53047L18.4127 11.0378L24.2218 11.9263C24.3893 11.9507 24.547 12.0243 24.6767 12.1385C24.8064 12.2527 24.9031 12.403 24.9555 12.5723C25.008 12.7415 25.0142 12.9229 24.9734 13.0957C24.9326 13.2685 24.8465 13.4257 24.7248 13.5494L20.5221 17.8336L21.5143 23.8863C21.6413 24.6631 20.8612 25.2547 20.194 24.8884L14.9991 22.0294L9.80317 24.8884C9.13705 25.2558 8.35691 24.6631 8.48393 23.8852L9.47611 17.8326L5.27336 13.5484C5.15232 13.4246 5.06672 13.2675 5.02628 13.095C4.98584 12.9225 4.99218 12.7416 5.04459 12.5727C5.09699 12.4039 5.19336 12.2539 5.32273 12.1398C5.45211 12.0257 5.6093 11.9521 5.77645 11.9273L11.5855 11.0378Z" fill="#B3E378" stroke="#B3E378" stroke-width="1.875" stroke-linecap="round" stroke-linejoin="round"/>
</svg>
