<svg width="50" height="50" viewBox="0 0 50 50" fill="none" xmlns="http://www.w3.org/2000/svg">
<path fill-rule="evenodd" clip-rule="evenodd" d="M41.6667 1.29457e-08C43.7923 -0.000118394 45.8375 0.812014 47.3841 2.27023C48.9306 3.72845 49.8614 5.72252 49.9861 7.84444L50 8.33333V41.6667C50.0001 43.7923 49.188 45.8375 47.7298 47.3841C46.2715 48.9306 44.2775 49.8614 42.1556 49.9861L41.6667 50H8.33333C6.20775 50.0001 4.16246 49.188 2.61594 47.7298C1.06943 46.2715 0.13859 44.2775 0.0138892 42.1556L1.29457e-08 41.6667V8.33333C-0.000118394 6.20775 0.812014 4.16246 2.27023 2.61594C3.72845 1.06943 5.72252 0.13859 7.84444 0.0138892L8.33333 1.29457e-08H41.6667Z" fill="#262627"/>
<path fill-rule="evenodd" clip-rule="evenodd" d="M15.2778 30.5556C14.242 30.5556 13.2434 30.9414 12.4766 31.6378C11.7099 32.3342 11.23 33.2912 11.1306 34.3222L11.1111 34.7222L11.1306 35.15C11.2305 36.1806 11.7106 37.1371 12.4773 37.8331C13.244 38.529 14.2423 38.9146 15.2778 38.9146C16.3132 38.9146 17.3116 38.529 18.0783 37.8331C18.845 37.1371 19.3251 36.1806 19.425 35.15L19.4444 34.75L19.425 34.3222C19.3256 33.2912 18.8457 32.3342 18.0789 31.6378C17.3122 30.9414 16.3136 30.5556 15.2778 30.5556ZM34.7222 30.5556C33.6864 30.5556 32.6878 30.9414 31.9211 31.6378C31.1543 32.3342 30.6744 33.2912 30.575 34.3222L30.5556 34.75C30.5561 35.82 30.9683 36.8489 31.7067 37.6233C32.4451 38.3977 33.4532 38.8584 34.522 38.9098C35.5908 38.9612 36.6384 38.5995 37.4478 37.8995C38.2571 37.1996 38.7662 36.2151 38.8694 35.15L38.8889 34.7222C38.8889 33.6172 38.4499 32.5573 37.6685 31.7759C36.8871 30.9945 35.8273 30.5556 34.7222 30.5556ZM25 20.8333C23.9642 20.8334 22.9656 21.2192 22.1988 21.9156C21.4321 22.612 20.9522 23.569 20.8528 24.6L20.8333 25.0278C20.8339 26.0978 21.246 27.1267 21.9845 27.9011C22.7229 28.6755 23.731 29.1361 24.7998 29.1876C25.8686 29.239 26.9162 28.8772 27.7256 28.1773C28.5349 27.4773 29.044 26.4928 29.1472 25.4278L29.1667 25C29.1667 23.8949 28.7277 22.8351 27.9463 22.0537C27.1649 21.2723 26.1051 20.8333 25 20.8333ZM15.2778 11.1111C14.242 11.1112 13.2434 11.497 12.4766 12.1934C11.7099 12.8898 11.23 13.8468 11.1306 14.8778L11.1111 15.2778L11.1306 15.7056C11.2305 16.7362 11.7106 17.6927 12.4773 18.3886C13.244 19.0846 14.2423 19.4702 15.2778 19.4702C16.3132 19.4702 17.3116 19.0846 18.0783 18.3886C18.845 17.6927 19.3251 16.7362 19.425 15.7056L19.4444 15.3056L19.425 14.8778C19.3256 13.8468 18.8457 12.8898 18.0789 12.1934C17.3122 11.497 16.3136 11.1112 15.2778 11.1111ZM34.7222 11.1111C33.6864 11.1112 32.6878 11.497 31.9211 12.1934C31.1543 12.8898 30.6744 13.8468 30.575 14.8778L30.5556 15.3056C30.5561 16.3756 30.9683 17.4044 31.7067 18.1789C32.4451 18.9533 33.4532 19.4139 34.522 19.4653C35.5908 19.5168 36.6384 19.155 37.4478 18.4551C38.2571 17.7551 38.7662 16.7706 38.8694 15.7056L38.8889 15.2778C38.8889 14.1727 38.4499 13.1129 37.6685 12.3315C36.8871 11.5501 35.8273 11.1111 34.7222 11.1111Z" fill="#B3E378"/>
</svg>
