<svg width="30" height="30" viewBox="0 0 30 30" fill="none" xmlns="http://www.w3.org/2000/svg">
<path d="M25.0708 4.3055L25.6879 4.91593C26.5382 5.75812 26.4096 7.25109 25.3982 8.25055L12.6726 20.8389L8.54967 22.3308C8.03195 22.5191 7.52782 22.275 7.42532 21.7876C7.39079 21.6109 7.4071 21.428 7.47239 21.26L9.00987 17.1463L21.6999 4.5921C22.7113 3.59264 24.2205 3.46331 25.0708 4.3055ZM12.1173 5.55741C12.2546 5.55741 12.3906 5.58417 12.5175 5.63616C12.6444 5.68816 12.7597 5.76437 12.8568 5.86044C12.954 5.95652 13.031 6.07057 13.0836 6.1961C13.1361 6.32163 13.1632 6.45617 13.1632 6.59203C13.1632 6.7279 13.1361 6.86244 13.0836 6.98797C13.031 7.1135 12.954 7.22755 12.8568 7.32363C12.7597 7.4197 12.6444 7.49591 12.5175 7.54791C12.3906 7.5999 12.2546 7.62666 12.1173 7.62666H7.93363C7.37885 7.62666 6.84679 7.84468 6.45449 8.23274C6.0622 8.6208 5.84182 9.14712 5.84182 9.69592V22.1115C5.84182 22.6603 6.0622 23.1866 6.45449 23.5747C6.84679 23.9627 7.37885 24.1807 7.93363 24.1807H20.4845C21.0393 24.1807 21.5714 23.9627 21.9637 23.5747C22.356 23.1866 22.5763 22.6603 22.5763 22.1115V17.973C22.5763 17.6986 22.6865 17.4354 22.8827 17.2414C23.0788 17.0473 23.3449 16.9383 23.6222 16.9383C23.8996 16.9383 24.1657 17.0473 24.3618 17.2414C24.558 17.4354 24.6682 17.6986 24.6682 17.973V22.1115C24.6682 23.2091 24.2274 24.2617 23.4428 25.0379C22.6582 25.814 21.5941 26.25 20.4845 26.25H7.93363C6.82406 26.25 5.75994 25.814 4.97536 25.0379C4.19077 24.2617 3.75 23.2091 3.75 22.1115V9.69592C3.75 8.59832 4.19077 7.54567 4.97536 6.76955C5.75994 5.99343 6.82406 5.55741 7.93363 5.55741H12.1173Z" fill="#1D1D1D"/>
</svg>
