<svg width="24" height="24" viewBox="0 0 24 24" fill="none" xmlns="http://www.w3.org/2000/svg">
<path d="M4.92871 4.93066C5.2216 4.63778 5.69637 4.63777 5.98926 4.93066L12.001 10.9424L18.0117 4.93164C18.3046 4.63903 18.7795 4.63884 19.0723 4.93164C19.3651 5.22444 19.3649 5.69927 19.0723 5.99219L13.0615 12.0029L19.0703 18.0117C19.3632 18.3046 19.3632 18.7794 19.0703 19.0723C18.7774 19.3652 18.3027 19.3652 18.0098 19.0723L12.001 13.0635L5.99121 19.0732C5.69831 19.366 5.2235 19.3661 4.93066 19.0732C4.63783 18.7804 4.63794 18.3056 4.93066 18.0127L10.9404 12.0029L4.92871 5.99121C4.63582 5.69832 4.63582 5.22356 4.92871 4.93066Z" fill="#6F6F6F"/>
</svg>
